<svg width="83" height="139" viewBox="0 0 83 139" fill="none" xmlns="http://www.w3.org/2000/svg">
<path d="M79.0299 43.741C78.7765 44.9439 77.8791 45.7249 76.9746 46.5509C75.0171 48.3392 72.6948 49.6791 70.3275 50.8756C53.7633 59.2395 33.4525 60.8265 16.5362 53.1971C13.6229 51.8836 10.8002 50.2838 8.40646 48.1571C7.457 47.3119 5.05689 45.3737 4.8099 44.0465C4.51721 42.4796 7.82104 42.8437 8.894 42.5831C9.01749 42.5502 9.141 42.5245 9.26529 42.4988C11.145 42.0698 13.0632 41.8028 14.9821 41.6208C27.8656 40.4043 41.0162 42.8822 53.7369 40.4828C59.9092 39.3185 66.0221 37.0034 72.2786 37.5759C73.9698 37.7251 75.6931 38.1156 77.0588 39.1236C77.163 39.2014 77.2601 39.28 77.3579 39.3706C78.5616 40.4307 79.3546 42.2062 79.0299 43.741Z" fill="#3291D9"/>
<path opacity="0.5" d="M79.0299 43.741C78.7765 44.9439 77.8791 45.725 76.9746 46.5509C75.0171 48.3392 72.6948 49.6791 70.3275 50.8756C53.7633 59.2395 33.4525 60.8265 16.5362 53.1971C13.6229 51.8836 10.8002 50.2838 8.40646 48.1571C7.457 47.3119 5.05689 45.3737 4.8099 44.0465C4.51721 42.4796 7.82104 42.8437 8.894 42.5831C9.01749 42.5502 9.141 42.5245 9.26529 42.4989C9.86993 42.6031 10.4682 42.7001 11.0343 42.7651C13.9677 43.1099 16.8939 43.4411 19.8273 43.7538C23.1247 44.1051 26.4221 44.4371 29.7188 44.7226C45.6985 46.1211 62.4969 46.4787 76.9674 39.559C77.0973 39.5005 77.228 39.4356 77.3579 39.3706C78.5616 40.4307 79.3546 42.2062 79.0299 43.741Z" fill="#3291D9"/>
<path d="M79.0812 43.3513L77.742 62.2828L73.6515 119.963C73.4237 123.157 71.277 125.881 68.2402 126.883C45.5429 134.395 25.7782 130.148 15.4961 126.682C12.4914 125.667 10.3968 122.949 10.1762 119.788L5.30467 50.9927L4.81067 44.0465C6.62539 44.255 8.44571 44.7298 10.2412 44.9182C13.6228 45.263 17.031 45.4258 20.4126 45.6985C26.7798 46.2125 33.1205 47.0056 39.5005 47.2791C51.2196 47.773 63.0959 47.2269 74.5488 44.5341C76.07 44.1773 77.5792 43.7803 79.0812 43.3513Z" fill="#68CEFF"/>
<path opacity="0.5" d="M77.7419 62.2828L73.6514 119.963C73.4236 123.157 71.2769 125.881 68.2401 126.883C45.5428 134.395 25.7781 130.148 15.496 126.682C12.4913 125.667 10.3967 122.949 10.1761 119.788L5.30457 50.9927C7.39915 59.1481 9.0639 67.4142 10.286 75.7452C11.2748 82.4701 11.9837 89.2598 13.7398 95.8219C15.5024 102.384 18.403 108.803 23.1896 113.628C27.9697 118.454 34.8373 121.504 41.5749 120.613C46.7842 119.923 51.4994 116.971 55.1352 113.173C58.7711 109.375 61.4375 104.764 63.8368 100.087C69.9898 88.1155 74.665 75.3876 77.7419 62.2828Z" fill="#68CEFF"/>
<path opacity="0.5" d="M47.9422 49.7465C39.5077 49.7971 31.0908 49.0024 22.714 48.0136C19.8264 47.6728 16.8898 47.3103 14.0278 47.8228C12.6365 48.0722 11.2146 48.5717 10.2868 49.6375C9.32614 50.7425 9.04148 52.3167 9.23956 53.7673C9.43843 55.218 10.0695 56.5724 10.764 57.8619C13.5955 63.116 17.7582 67.8047 23.1342 70.3957C27.3755 72.4398 32.1509 73.0942 36.8533 73.3275C40.9286 73.5304 45.085 73.4278 48.9774 72.2016C53.7753 70.6908 57.8978 67.561 61.5738 64.128C65.2497 60.695 68.5897 56.9004 72.4445 53.6695C73.4998 52.785 74.6153 51.9189 75.3338 50.7441C75.8855 49.8428 76.7099 46.6913 74.8574 46.6929C73.855 46.6937 72.7019 47.1451 71.7147 47.34C70.6466 47.5517 69.5761 47.749 68.5031 47.9334C64.1279 48.6832 59.7142 49.202 55.2844 49.4875C52.841 49.6455 50.392 49.7321 47.9422 49.7465Z" fill="#9CF1FF"/>
<path opacity="0.5" d="M25.0572 49.7978C22.5448 49.5139 19.9338 49.2269 17.5425 50.048C16.9227 50.2613 16.241 50.6631 16.1921 51.3175C16.1416 51.9943 16.7919 52.493 17.3797 52.8331C22.0404 55.5323 27.4044 56.8851 32.7788 57.2307C38.154 57.5764 43.5533 56.9444 48.8323 55.8739C51.6454 55.3029 54.4825 54.5932 57.0134 53.1955C57.6453 52.8467 59.0526 52.0344 57.9019 51.4193C56.9588 50.9149 55.6325 51.1314 54.6229 51.1939C48.2838 51.5877 41.9222 51.3543 35.5967 50.8459C32.0771 50.5628 28.5648 50.194 25.0572 49.7978Z" fill="#9CF1FF"/>
<path opacity="0.5" d="M61.9091 50.8171C61.5643 50.9638 61.2171 51.1371 60.9757 51.4241C60.7343 51.7104 60.6236 52.137 60.8008 52.4674C61.0262 52.8876 61.5795 52.979 62.0558 53.0031C62.7415 53.0376 63.4287 53.0344 64.1144 52.9927C65.2739 52.9213 66.4375 52.7329 67.5321 52.3335C68.172 52.1001 69.8616 51.4995 70.0148 50.7096C70.2722 49.3881 66.7093 49.7088 66.0533 49.7906C64.6388 49.9662 63.2258 50.2549 61.9091 50.8171Z" fill="#9CF1FF"/>
<path opacity="0.19" d="M41.6944 1C19.2241 1 1.00146 5.01916 1.00146 9.97497C1.00146 10.0592 1.0079 10.1506 1.02153 10.2348L8.53303 123.898L8.96203 130.349C8.96203 130.349 9.37181 134.355 11.2964 135.597C11.4199 135.682 11.5498 135.754 11.6869 135.806C12.8962 136.293 29.1557 138.225 41.6944 137.978C54.2331 138.225 70.499 136.293 71.7019 135.806C72.0274 135.676 72.3202 135.467 72.5736 135.208C74.0892 133.673 74.4332 130.35 74.4332 130.35L74.8237 124.399L82.3681 10.2348C82.3809 10.1506 82.3873 10.0592 82.3873 9.97497C82.3865 5.01916 64.1703 1 41.6944 1Z" fill="#D7FFFF"/>
<path opacity="0.33" d="M82.3153 11.0608L74.9145 123.046L74.8231 124.399L74.4325 130.35C74.4325 130.35 74.4325 130.363 74.4261 130.389C74.4261 130.402 74.4261 130.422 74.4197 130.441C74.4197 130.467 74.4197 130.48 74.4133 130.513C74.4069 130.539 74.4069 130.571 74.4005 130.61C74.3941 130.636 74.394 130.669 74.3876 130.701C74.3812 130.747 74.3748 130.792 74.362 130.844C74.3555 130.877 74.3491 130.915 74.3419 130.954C74.3355 131.013 74.3227 131.071 74.3098 131.136C74.3034 131.176 74.297 131.214 74.2906 131.26C74.277 131.331 74.2649 131.396 74.2449 131.475C74.2385 131.501 74.2321 131.533 74.2256 131.565C74.1928 131.728 74.1479 131.897 74.1022 132.073C74.0957 132.125 74.0829 132.171 74.0693 132.216C74.05 132.294 74.0236 132.372 73.9979 132.456C73.9915 132.482 73.9851 132.515 73.9714 132.541C73.965 132.573 73.9586 132.605 73.9458 132.638C73.9193 132.716 73.8937 132.795 73.868 132.879C73.8415 132.944 73.8223 133.009 73.7966 133.08C73.7701 133.158 73.7381 133.229 73.7124 133.308C73.6795 133.379 73.6539 133.451 73.621 133.529C73.5945 133.601 73.5624 133.672 73.5296 133.744L73.4125 133.978C73.3796 134.043 73.354 134.102 73.3211 134.167C73.2497 134.303 73.1712 134.433 73.087 134.557C73.0741 134.583 73.0541 134.603 73.0412 134.629C72.9699 134.733 72.8913 134.837 72.8199 134.928C72.7878 134.967 72.7549 135.006 72.7229 135.038C72.6707 135.097 72.625 135.156 72.5729 135.208V135.195C72.3187 135.455 72.0332 135.676 71.7012 135.806C70.4984 136.293 54.2324 138.225 41.6938 137.978C29.1543 138.225 12.8955 136.293 11.6862 135.806C11.3085 135.65 10.9838 135.39 10.6975 135.071C10.6783 135.052 10.6518 135.026 10.6326 135.006C10.5612 134.922 10.4962 134.824 10.4248 134.733C10.3992 134.694 10.3727 134.662 10.3535 134.629C10.2885 134.538 10.23 134.44 10.1715 134.342C10.1522 134.297 10.1258 134.258 10.1001 134.219C10.048 134.121 9.99584 134.018 9.94372 133.92C9.92447 133.874 9.90523 133.828 9.87877 133.783C9.83306 133.679 9.78736 133.576 9.74887 133.472C9.72882 133.426 9.70958 133.38 9.69033 133.335C9.65104 133.231 9.61255 133.128 9.57326 133.023C9.56043 132.971 9.54118 132.925 9.52754 132.881C9.48825 132.776 9.45536 132.673 9.4297 132.575C9.41046 132.523 9.39762 132.477 9.38399 132.432C9.37116 132.38 9.35832 132.334 9.34469 132.29V132.283C9.32544 132.231 9.3126 132.179 9.30538 132.133C9.29255 132.094 9.27971 132.049 9.26608 132.003C9.24683 131.905 9.22038 131.815 9.20113 131.723C9.19472 131.684 9.18112 131.646 9.1747 131.606C9.15465 131.516 9.13541 131.431 9.12257 131.347C9.10974 131.307 9.10249 131.275 9.09688 131.242C9.08405 131.164 9.07046 131.086 9.05762 131.015C9.05121 130.982 9.0448 130.956 9.0448 130.923C9.03197 130.858 9.01911 130.793 9.01269 130.741C9.00628 130.708 9.00629 130.689 8.99987 130.663C8.99345 130.618 8.98702 130.565 8.9798 130.527C8.9798 130.501 8.97981 130.488 8.97339 130.462C8.97339 130.443 8.96698 130.416 8.96698 130.397C8.96056 130.365 8.96057 130.351 8.96057 130.351L8.53157 123.9L8.45375 122.704L1.03931 10.5427C1.15639 10.9196 1.33198 11.2773 1.57897 11.6028C1.60543 11.6285 1.63113 11.6614 1.65679 11.6871C1.66321 11.6935 1.66961 11.6999 1.67603 11.7063C1.88453 11.9276 2.09942 12.1417 2.31353 12.3631C2.31353 12.3695 2.31994 12.3695 2.32636 12.3759C2.33277 12.3823 2.33918 12.3823 2.33918 12.3887C2.35201 12.3951 2.44989 12.4537 2.57338 12.5315L10.1763 119.789C10.3976 122.949 12.4914 125.668 15.4962 126.683C25.7782 130.149 45.5429 134.396 68.2402 126.884C71.277 125.882 73.4237 123.157 73.6507 119.964L81.3121 11.8354C81.6112 11.6662 81.8975 11.4713 82.1381 11.2171C82.1982 11.165 82.2568 11.1129 82.3153 11.0608Z" fill="#A7FFFF"/>
<path opacity="0.33" d="M36.706 134.447C35.6266 135.162 34.2674 135.26 32.9795 135.312C27.796 135.52 22.5996 135.351 17.4425 134.818C15.1009 134.571 12.7016 134.233 10.6271 133.114C10.178 132.873 9.74901 132.593 9.34565 132.288V132.282C9.32641 132.229 9.31357 132.177 9.30635 132.132C9.29352 132.092 9.28068 132.047 9.26705 132.002C9.2478 131.904 9.22134 131.813 9.2021 131.722C9.19568 131.683 9.18203 131.644 9.17562 131.605C9.15557 131.514 9.13632 131.429 9.12349 131.345C9.11066 131.306 9.10346 131.274 9.09785 131.241C9.08501 131.163 9.07137 131.084 9.05854 131.013C9.05213 130.981 9.04572 130.954 9.04572 130.921C9.03289 130.857 9.02008 130.792 9.01366 130.739C9.00725 130.707 9.0072 130.687 9.00079 130.662C8.99437 130.616 8.98799 130.564 8.98077 130.525C8.98077 130.5 8.98077 130.486 8.97436 130.46C8.97436 130.441 8.96795 130.415 8.96795 130.395C8.96153 130.363 8.96153 130.35 8.96153 130.35L8.53249 123.898L8.45471 122.702C8.73458 123.027 9.02725 123.346 9.33919 123.651C12.1162 126.409 15.6936 128.275 19.3743 129.531C24.6357 131.326 30.2097 132.015 35.601 133.387C36.1535 133.53 36.8359 133.894 36.706 134.447Z" fill="#A7FFFF"/>
<path opacity="0.33" d="M74.9145 123.046L74.8231 124.399L74.4325 130.35C74.4325 130.35 74.4325 130.363 74.4261 130.389C74.4261 130.402 74.4261 130.422 74.4197 130.441C74.4197 130.467 74.4197 130.48 74.4133 130.513C74.4069 130.539 74.4069 130.571 74.4005 130.61C74.3941 130.636 74.394 130.669 74.3876 130.701C74.3812 130.747 74.3748 130.792 74.362 130.844C74.3555 130.877 74.3491 130.915 74.3419 130.954C74.3355 131.013 74.3227 131.071 74.3098 131.136C74.3034 131.176 74.297 131.214 74.2906 131.26C74.277 131.331 74.2649 131.396 74.2449 131.475C74.2385 131.501 74.2321 131.533 74.2256 131.565C74.1928 131.728 74.1479 131.897 74.1022 132.073C74.0957 132.125 74.0829 132.171 74.0693 132.216C74.05 132.294 74.0236 132.372 73.9979 132.456C73.9915 132.482 73.9851 132.515 73.9714 132.541C73.6787 132.748 73.3668 132.944 73.0484 133.113C70.9739 134.232 68.5737 134.57 66.233 134.817C61.0751 135.35 55.8795 135.52 50.696 135.311C49.4081 135.259 48.0489 135.161 46.9695 134.446C46.8332 133.893 47.522 133.529 48.0754 133.386C53.4666 132.014 59.0406 131.324 64.3012 129.529C67.9755 128.274 71.5529 126.408 74.3363 123.65C74.5304 123.456 74.726 123.254 74.9145 123.046Z" fill="#A7FFFF"/>
<path d="M82.3867 9.97497C82.3867 10.0592 82.3803 10.1506 82.3675 10.2348C81.7492 15.0735 63.78 18.9564 41.6938 18.9564C19.614 18.9564 1.63834 15.0735 1.02007 10.2348C1.00724 10.1506 1 10.0592 1 9.97497C1 5.01916 19.2234 1 41.6929 1C64.1705 1 82.3867 5.01916 82.3867 9.97497Z" stroke="#1982FF" stroke-width="0.650349" stroke-miterlimit="10"/>
<path d="M41.6944 1C19.2241 1 1.00146 5.01916 1.00146 9.97497C1.00146 10.0592 1.0079 10.1506 1.02153 10.2348L8.53303 123.898L8.96203 130.349C8.96203 130.349 9.37181 134.355 11.2964 135.597C11.4199 135.682 11.5498 135.754 11.6869 135.806C12.8962 136.293 29.1557 138.225 41.6944 137.978C54.2331 138.225 70.499 136.293 71.7019 135.806C72.0274 135.676 72.3202 135.468 72.5736 135.208C74.0892 133.673 74.4332 130.35 74.4332 130.35L74.8237 124.399L82.3681 10.2348C82.3809 10.1506 82.3873 10.0592 82.3873 9.97497C82.3865 5.01916 64.1703 1 41.6944 1Z" stroke="#1982FF" stroke-width="0.650349" stroke-miterlimit="10"/>
<path opacity="0.19" d="M78.4782 13.8185L72.3772 123.723C71.415 125.18 69.9715 126.311 68.241 126.884C65.2298 127.879 62.2643 128.672 59.3702 129.284L64.541 17.4095C76.2801 17.031 78.4782 13.8185 78.4782 13.8185Z" fill="#D7FFFF"/>
<path opacity="0.19" d="M23.9395 129.023C21.7222 128.529 19.699 127.988 17.8915 127.442C17.0455 127.189 16.246 126.934 15.4978 126.681C15.173 126.57 14.8602 126.44 14.5611 126.29L6.38647 14.4416L10.6269 15.4753L17.9957 17.2764L23.9395 129.023Z" fill="#D7FFFF"/>
<path opacity="0.19" d="M17.8915 127.443C17.0455 127.189 16.246 126.935 15.4978 126.682C15.173 126.571 14.8602 126.441 14.5611 126.291L6.38647 14.4424L10.6269 15.4761C11.0231 19.7037 16.1353 99.2556 17.8915 127.443Z" fill="#D7FFFF"/>
</svg>
