<svg width="30" height="30" viewBox="0 0 30 30" fill="none" xmlns="http://www.w3.org/2000/svg">
<path d="M5.38469 24.375C4.75323 24.375 4.21875 24.1562 3.78125 23.7188C3.34375 23.2812 3.125 22.7468 3.125 22.1153V7.88469C3.125 7.25323 3.34375 6.71875 3.78125 6.28125C4.21875 5.84375 4.75323 5.625 5.38469 5.625H24.6153C25.2468 5.625 25.7812 5.84375 26.2188 6.28125C26.6562 6.71875 26.875 7.25323 26.875 7.88469V22.1153C26.875 22.7468 26.6562 23.2812 26.2188 23.7188C25.7812 24.1562 25.2468 24.375 24.6153 24.375H5.38469ZM15 15.6972L5 9.30281V22.1153C5 22.2276 5.03604 22.3198 5.10813 22.3919C5.18021 22.464 5.2724 22.5 5.38469 22.5H24.6153C24.7276 22.5 24.8198 22.464 24.8919 22.3919C24.964 22.3198 25 22.2276 25 22.1153V9.30281L15 15.6972ZM15 13.75L24.8078 7.5H5.19219L15 13.75ZM5 9.30281V7.5V22.1153C5 22.2276 5.03604 22.3198 5.10813 22.3919C5.18021 22.464 5.2724 22.5 5.38469 22.5H5V9.30281Z" fill="#1982FF"/>
</svg>
