<svg width="55" height="55" viewBox="0 0 55 55" fill="none" xmlns="http://www.w3.org/2000/svg">
<path d="M27.5 55C42.6878 55 55 42.6878 55 27.5C55 12.3122 42.6878 0 27.5 0C12.3122 0 0 12.3122 0 27.5C0 42.6878 12.3122 55 27.5 55Z" fill="url(#paint0_radial_74_928)"/>
<path d="M12.0567 23.038C11.7592 23.038 11.4721 22.8732 11.3314 22.5886C11.133 22.1883 11.2968 21.7034 11.6971 21.504L17.1235 18.8153L11.6625 15.7705C11.2722 15.553 11.132 15.0601 11.3499 14.6703C11.5673 14.2811 12.0597 14.1403 12.45 14.3582L19.2541 18.1511C19.5161 18.2973 19.6764 18.5769 19.6689 18.877C19.6619 19.177 19.4891 19.4486 19.2195 19.5823L12.4154 22.9543C12.2997 23.0114 12.1775 23.038 12.0567 23.038Z" fill="black"/>
<path d="M42.9432 23.0379C42.8225 23.0379 42.7003 23.0113 42.585 22.9542L35.7809 19.5822C35.5114 19.449 35.3386 19.177 35.3316 18.8769C35.324 18.5768 35.4838 18.2973 35.7464 18.151L42.5505 14.3582C42.9417 14.1402 43.4337 14.2805 43.6506 14.6703C43.868 15.0605 43.7282 15.5535 43.338 15.7704L37.877 18.8153L43.3034 21.5039C43.7037 21.7028 43.8675 22.1878 43.6691 22.5885C43.5274 22.8731 43.2408 23.0379 42.9432 23.0379Z" fill="black"/>
<path d="M43.385 36.0339C44.6183 33.7325 45.3217 31.1044 45.3217 28.3101H9.67749C9.67749 31.1039 10.3808 33.7325 11.6142 36.0339C15.3439 33.457 21.0684 31.8023 27.4993 31.8023C33.9307 31.8028 39.6558 33.4575 43.385 36.0339Z" fill="black"/>
<path d="M26.0548 44.6876H28.9449C35.1959 44.6876 40.6249 41.1834 43.3852 36.0344C39.6555 33.4575 33.931 31.8028 27.5001 31.8028C21.0692 31.8028 15.3442 33.4575 11.615 36.0344C14.3748 41.1834 19.8043 44.6876 26.0548 44.6876Z" fill="#E94E65"/>
<defs>
<radialGradient id="paint0_radial_74_928" cx="0" cy="0" r="1" gradientUnits="userSpaceOnUse" gradientTransform="translate(27.5 27.5) scale(27.5 27.5)">
<stop offset="0.8212" stop-color="#FDDF08"/>
<stop offset="0.9611" stop-color="#FDDF08"/>
</radialGradient>
</defs>
</svg>
