<svg width="34" height="34" viewBox="0 0 34 34" fill="none" xmlns="http://www.w3.org/2000/svg">
<path d="M8.93598 30.4583C8.22953 30.4583 7.62603 30.2082 7.12548 29.7078C6.62516 29.2073 6.375 28.6038 6.375 27.8973V14.6026C6.375 13.8962 6.62516 13.2927 7.12548 12.7921C7.62603 12.2918 8.22953 12.0416 8.93598 12.0416H10.625V9.20831C10.625 7.43937 11.2453 5.93463 12.4858 4.6941C13.7263 3.45358 15.2311 2.83331 17 2.83331C18.7689 2.83331 20.2737 3.45358 21.5142 4.6941C22.7547 5.93463 23.375 7.43937 23.375 9.20831V12.0416H25.064C25.7705 12.0416 26.374 12.2918 26.8745 12.7921C27.3748 13.2927 27.625 13.8962 27.625 14.6026V27.8973C27.625 28.6038 27.3748 29.2073 26.8745 29.7078C26.374 30.2082 25.7705 30.4583 25.064 30.4583H8.93598ZM8.93598 28.3333H25.064C25.1913 28.3333 25.2958 28.2925 25.3775 28.2108C25.4592 28.1291 25.5 28.0246 25.5 27.8973V14.6026C25.5 14.4754 25.4592 14.3709 25.3775 14.2892C25.2958 14.2075 25.1913 14.1666 25.064 14.1666H8.93598C8.80872 14.1666 8.70424 14.2075 8.62254 14.2892C8.54085 14.3709 8.5 14.4754 8.5 14.6026V27.8973C8.5 28.0246 8.54085 28.1291 8.62254 28.2108C8.70424 28.2925 8.80872 28.3333 8.93598 28.3333ZM17 23.7291C17.6883 23.7291 18.2736 23.4881 18.756 23.0059C19.2381 22.5236 19.4792 21.9382 19.4792 21.25C19.4792 20.5617 19.2381 19.9764 18.756 19.494C18.2736 19.0119 17.6883 18.7708 17 18.7708C16.3117 18.7708 15.7264 19.0119 15.244 19.494C14.7619 19.9764 14.5208 20.5617 14.5208 21.25C14.5208 21.9382 14.7619 22.5236 15.244 23.0059C15.7264 23.4881 16.3117 23.7291 17 23.7291ZM12.75 12.0416H21.25V9.20831C21.25 8.02776 20.8368 7.02429 20.0104 6.1979C19.184 5.37151 18.1806 4.95831 17 4.95831C15.8194 4.95831 14.816 5.37151 13.9896 6.1979C13.1632 7.02429 12.75 8.02776 12.75 9.20831V12.0416Z" fill="#1982FF"/>
</svg>
