<svg width="270" height="72" viewBox="0 0 270 72" fill="none" xmlns="http://www.w3.org/2000/svg">
<path d="M252.279 48.2525C253.431 48.2525 254.408 48.3614 255.194 48.5943C255.98 48.827 256.613 49.1944 257.02 49.7378H257.018C257.817 50.7304 258.165 52.2606 258.165 54.2183C258.165 55.1072 258.082 55.996 257.916 56.8833C257.78 57.845 257.225 58.6227 256.335 59.2163L256.334 59.2153C255.448 59.8407 254.031 60.105 252.199 60.105C250.123 60.105 248.531 59.7335 247.639 58.8228L247.47 58.6333C246.664 57.6411 246.312 56.105 246.312 54.1382C246.312 53.3008 246.396 52.4639 246.563 51.6284C246.75 50.639 247.283 49.8341 248.13 49.229C249.02 48.541 250.445 48.2525 252.279 48.2525ZM251.877 1.62648C255.376 1.62648 258.462 2.33753 261.119 3.77687H261.118C263.767 5.15789 265.817 7.12279 267.258 9.66652H267.259C268.759 12.1664 269.5 15.0719 269.5 18.3648C269.5 20.3402 269.226 22.1386 268.669 23.7534C268.117 25.3542 267.34 26.7689 266.34 27.9946L266.341 27.9956C265.521 29.056 264.616 29.9926 263.624 30.8032L263.193 31.1431C262.188 31.9092 261.178 32.5527 260.164 33.0718L259.729 33.2866C258.902 33.6807 258.112 34.0046 257.361 34.2593V38.5425C257.361 39.3284 257.277 40.0668 257.105 40.7544L257.102 40.7642C256.9 41.5067 256.396 42.0854 255.666 42.5112L255.652 42.52L255.638 42.5269C254.885 42.9032 253.74 43.062 252.279 43.062C250.951 43.062 249.875 42.8977 249.119 42.5112L248.973 42.4312C248.229 41.9973 247.731 41.3838 247.533 40.5933L247.528 40.5708L247.524 40.5484C247.413 39.8233 247.357 39.047 247.357 38.2212V32.9956C247.357 31.6364 247.669 30.4969 248.349 29.6323L248.596 29.3355C249.189 28.6599 249.912 28.0982 250.759 27.6499C251.733 27.1092 252.734 26.6222 253.762 26.189L254.152 26.0093C255.054 25.5844 255.893 25.1205 256.67 24.6177C257.567 24.0183 258.29 23.2455 258.841 22.2944L258.936 22.1187C259.405 21.2205 259.657 20.0331 259.657 18.5259C259.657 16.1562 258.991 14.4314 257.728 13.2661L257.721 13.2593L257.714 13.2525C256.504 12.0427 254.593 11.3892 251.877 11.3892C250.647 11.3892 249.562 11.5937 248.614 11.9927L248.604 11.9976L248.594 12.0015C247.756 12.31 247.043 12.73 246.449 13.2593L246.201 13.4937C245.614 14.0806 245.171 14.7924 244.873 15.6372C244.54 16.6864 244.112 17.532 243.567 18.1372L243.566 18.1362C243.06 18.7582 242.393 19.1343 241.588 19.2593L241.589 19.2603H241.586L241.583 19.2612L241.582 19.2603C240.819 19.3854 239.817 19.2214 238.622 18.8413L238.6 18.8345L238.577 18.8247C237.58 18.3974 236.782 17.979 236.204 17.5659L235.97 17.3892C235.421 16.9506 235.054 16.403 234.885 15.7564L234.824 15.4732L234.82 15.4527L234.819 15.4321C234.758 14.6994 234.911 13.8029 235.237 12.7652C235.412 12.0174 235.752 11.1787 236.242 10.2534L236.437 9.89699C236.912 9.06375 237.51 8.21561 238.228 7.35304L238.23 7.35109L238.574 6.95949C239.395 6.05919 240.362 5.24757 241.471 4.52394L241.979 4.19972C243.015 3.5703 244.155 3.05283 245.399 2.64503L246.03 2.44972C247.747 1.89773 249.699 1.62651 251.877 1.62648Z" fill="#1982FF" stroke="#1982FF"/>
<path d="M160.428 18.1855C163.374 18.1855 165.987 18.6488 168.257 19.5898L168.675 19.7686C170.736 20.6773 172.474 21.8563 173.879 23.3096L174.164 23.5908C175.565 25.0045 176.633 26.5698 177.363 28.2861L177.514 28.627C178.243 30.3313 178.613 32.0028 178.613 33.6377C178.613 36.5435 177.902 38.7677 176.369 40.1875L176.37 40.1885C174.928 41.5731 173.111 42.2568 170.959 42.2568H150.268C150.4 43.7592 150.917 45.0642 151.815 46.1875C152.886 47.4597 154.211 48.4552 155.798 49.1738C157.454 49.8461 159.131 50.1807 160.83 50.1807C162.151 50.1807 163.303 50.101 164.289 49.9453L164.293 49.9443L165.055 49.8213C165.779 49.6941 166.41 49.552 166.949 49.3984C167.679 49.1373 168.297 48.8796 168.807 48.625L168.814 48.6211L168.823 48.6172C169.414 48.3489 169.951 48.1076 170.435 47.8926C170.952 47.6625 171.456 47.512 171.942 47.4512L171.95 47.4502L171.959 47.4492C172.66 47.3855 173.347 47.5479 174.012 47.9102C174.713 48.2928 175.254 48.9422 175.658 49.7979C175.986 50.3481 176.217 50.8879 176.34 51.416C176.514 51.8884 176.603 52.3671 176.603 52.8506C176.603 54.1466 175.821 55.2955 174.475 56.3057L174.464 56.3135C173.107 57.2744 171.218 58.0443 168.829 58.6416L168.828 58.6406C166.471 59.2965 163.696 59.6211 160.509 59.6211C156.972 59.6211 153.848 59.0498 151.147 57.8926L151.144 57.8906C148.512 56.7393 146.283 55.1727 144.464 53.1885L144.459 53.1836L144.454 53.1777C142.701 51.1512 141.358 48.903 140.426 46.4355L140.421 46.4229V46.4219C139.545 43.9039 139.107 41.3032 139.107 38.6221C139.107 34.684 140.01 31.1643 141.829 28.0781L142.178 27.5088C143.96 24.6986 146.348 22.4679 149.334 20.8203L149.337 20.8184L149.951 20.499C153.046 18.9533 156.542 18.1856 160.428 18.1855ZM160.348 27.707C158.434 27.707 156.717 28.0938 155.186 28.8594L155.173 28.8662V28.8652C153.641 29.5801 152.427 30.569 151.517 31.8291L151.361 32.0654C150.697 33.1219 150.329 34.2809 150.253 35.5498H166.216C167.074 35.5498 167.665 35.4228 168.041 35.2217C168.306 35.0367 168.529 34.6138 168.529 33.7188C168.529 32.5964 168.191 31.6055 167.51 30.7295L167.502 30.7188C166.811 29.7808 165.868 29.0574 164.657 28.5527L164.649 28.5488L164.642 28.5459C163.433 27.992 162.006 27.707 160.348 27.707Z" fill="#1982FF" stroke="#1982FF"/>
<path d="M99.7956 0.5C101.317 0.50002 102.517 0.712752 103.289 1.22754L103.426 1.32324C104.097 1.81573 104.529 2.48289 104.706 3.30664L104.765 3.60449C104.895 4.3056 104.958 5.04556 104.958 5.82324V22.7998C106.103 21.7055 107.389 20.8003 108.816 20.0869L109.217 19.8955C111.23 18.967 113.479 18.5068 115.954 18.5068C118.49 18.5069 120.868 19.0317 123.082 20.083H123.081C125.334 21.1276 127.312 22.5832 129.014 24.4473L129.34 24.792C130.946 26.5336 132.211 28.5631 133.136 30.876H133.137C134.128 33.2972 134.622 35.8809 134.622 38.6221C134.622 41.4679 134.129 44.1563 133.14 46.6826L133.138 46.6855C132.153 49.1498 130.809 51.3188 129.105 53.1875L129.1 53.1934C127.502 54.8951 125.659 56.259 123.577 57.2842L123.158 57.4844C120.894 58.5337 118.49 59.0586 115.954 59.0586C113.262 59.0586 110.827 58.536 108.66 57.4805L108.653 57.4775L108.646 57.4736C107.289 56.7595 106.06 55.8819 104.958 54.8447V55.3877L104.95 55.4326C104.723 56.6778 104.227 57.6456 103.394 58.2314C102.61 58.8741 101.368 59.1386 99.7956 59.1387C98.3113 59.1387 97.1166 58.8945 96.2956 58.3262V58.3252C95.5159 57.8387 94.9998 57.1777 94.8064 56.3398L94.8044 56.332C94.6351 55.5417 94.5525 54.6752 94.5525 53.7354V5.82324L94.5564 5.47559C94.5746 4.67498 94.6566 3.94807 94.8064 3.29883C94.9992 2.40932 95.5161 1.71033 96.3181 1.2168L96.4753 1.12695C97.2827 0.689883 98.4103 0.5 99.7956 0.5ZM114.668 28.9131C113.042 28.9131 111.559 29.2923 110.211 30.0498L109.943 30.207C108.519 31.0717 107.372 32.2386 106.503 33.7178L106.504 33.7188C105.693 35.1887 105.28 36.8987 105.28 38.8633C105.28 40.7703 105.691 42.4528 106.502 43.9238C107.37 45.4027 108.515 46.5705 109.937 47.4355C111.357 48.2453 112.93 48.6533 114.668 48.6533C116.461 48.6533 118.06 48.2438 119.477 47.4355C120.9 46.5707 122.016 45.4043 122.831 43.9277L122.838 43.916L122.994 43.6377C123.752 42.235 124.135 40.6475 124.135 38.8633C124.135 36.9038 123.698 35.1974 122.838 33.7295L122.833 33.7217L122.828 33.7129C122.012 32.1835 120.898 31.021 119.484 30.2129L119.472 30.207C118.056 29.3468 116.458 28.9131 114.668 28.9131Z" fill="#1982FF" stroke="#1982FF"/>
<path d="M71.0108 18.1855C73.9566 18.1855 76.5703 18.6488 78.8399 19.5898L79.2578 19.7686C81.3193 20.6773 83.057 21.8563 84.4619 23.3096L84.7471 23.5908C86.1478 25.0045 87.2164 26.5698 87.9463 28.2861L88.0967 28.627C88.8258 30.3313 89.1963 32.0028 89.1963 33.6377C89.1963 36.5435 88.4849 38.7677 86.9522 40.1875L86.9532 40.1885C85.5108 41.5731 83.694 42.2568 81.542 42.2568H60.8506C60.9829 43.7592 61.4999 45.0642 62.3985 46.1875C63.4694 47.4597 64.7944 48.4552 66.3809 49.1738C68.0374 49.8461 69.7137 50.1807 71.4131 50.1807C72.734 50.1807 73.886 50.101 74.8721 49.9453L74.876 49.9443L75.6377 49.8213C76.362 49.6941 76.9927 49.552 77.5323 49.3984C78.2618 49.1373 78.8805 48.8796 79.3897 48.625L79.3975 48.6211L79.4063 48.6172C79.9966 48.3489 80.5339 48.1076 81.0176 47.8926L81.4034 47.7344C81.7859 47.5923 82.1605 47.4968 82.5254 47.4512L82.5332 47.4502L82.542 47.4492C83.2429 47.3855 83.9305 47.5479 84.5948 47.9102C85.2962 48.2928 85.8368 48.9422 86.2412 49.7979C86.5695 50.3481 86.8001 50.8879 86.9229 51.416C87.0967 51.8884 87.1865 52.3671 87.1866 52.8506C87.1866 54.1466 86.4045 55.2955 85.0576 56.3057L85.0469 56.3135C83.6902 57.2744 81.8013 58.0443 79.4121 58.6416L79.4112 58.6406C77.0546 59.2965 74.2791 59.6211 71.0918 59.6211C67.5552 59.6211 64.4308 59.0498 61.7305 57.8926L61.7266 57.8906C59.0952 56.7393 56.8658 55.1727 55.0469 53.1885L55.042 53.1836L55.0371 53.1777C53.2845 51.1512 51.941 48.903 51.0088 46.4355L51.0039 46.4229V46.4219C50.1283 43.9039 49.6905 41.3032 49.6905 38.6221C49.6905 34.684 50.5935 31.1643 52.4121 28.0781L52.7608 27.5088C54.543 24.6986 56.9309 22.4679 59.917 20.8203L59.92 20.8184L60.5342 20.499C63.6292 18.9533 67.1249 18.1856 71.0108 18.1855ZM70.9307 27.707C69.0175 27.707 67.2999 28.0938 65.7686 28.8594L65.7559 28.8662V28.8652C64.224 29.5801 63.0098 30.569 62.0996 31.8291L61.9444 32.0654C61.2805 33.1219 60.9123 34.2809 60.836 35.5498H76.7989C77.6571 35.5498 78.2483 35.4228 78.6241 35.2217C78.8888 35.0367 79.1123 34.6138 79.1123 33.7188C79.1123 32.5963 78.7741 31.6055 78.0928 30.7295L78.085 30.7188C77.3939 29.7808 76.4515 29.0574 75.2403 28.5527L75.2325 28.5488L75.2246 28.5459C74.0161 27.992 72.5887 27.707 70.9307 27.707Z" fill="#1982FF" stroke="#1982FF"/>
<path d="M27.0459 1.86664C30.2347 1.86664 33.0607 2.60986 35.5068 4.11078H35.5059C37.9884 5.601 39.9251 7.59154 41.3076 10.0786L41.5596 10.5375C42.7763 12.8512 43.3828 15.3825 43.3828 18.1225C43.3828 19.4508 43.2169 20.7783 42.8857 22.103L42.8848 22.102C42.6049 23.3819 42.1318 24.5809 41.4629 25.6957L41.4619 25.6948C40.9382 26.6436 40.2933 27.5104 39.5293 28.2963C40.6243 29.2257 41.587 30.3267 42.417 31.5961L42.7578 32.142C43.5241 33.4272 44.1006 34.8164 44.4873 36.308L44.6621 36.933C45.0424 38.4002 45.2314 39.9284 45.2314 41.5161V41.5268C45.1766 43.9956 44.7095 46.3078 43.8271 48.4584L43.8262 48.4623C42.9449 50.5554 41.7036 52.4027 40.1064 54.0014L40.1074 54.0024C38.6557 55.5059 36.9605 56.6928 35.0264 57.5629L34.6357 57.7328C32.5338 58.6179 30.2698 59.058 27.8496 59.058H5.74316C4.39726 59.058 3.28828 58.843 2.48047 58.3491L2.32324 58.2465C1.58061 57.7324 1.07083 57.0476 0.807617 56.2055L0.757812 56.0346L0.753906 56.019L0.750977 56.0034C0.582771 55.1622 0.5 54.2442 0.5 53.2524V7.59222C0.5 6.59164 0.611121 5.68627 0.84082 4.88226H0.841797C1.08478 3.97805 1.5738 3.24025 2.30762 2.68988L2.31543 2.68402L2.32324 2.67914C3.14418 2.1108 4.33883 1.86665 5.82324 1.86664H27.0459ZM11.2275 48.5727H27.0459C28.5362 48.5727 29.8237 48.2897 30.9219 47.7407L30.9297 47.7368C32.0662 47.1932 32.9563 46.3561 33.6045 45.2094L33.7207 44.9916C34.2858 43.8843 34.585 42.4401 34.585 40.6313C34.5849 39.1149 34.3742 37.965 33.9893 37.1469L33.9824 37.1313L33.9756 37.1147C33.6276 36.2201 33.1415 35.5505 32.5293 35.0795L32.5215 35.0737L32.5137 35.0668C31.9317 34.5819 31.2504 34.2395 30.4619 34.0424L30.4541 34.0405C29.691 33.837 28.9306 33.7358 28.1719 33.7358H28.1553L28.1387 33.7348C27.3443 33.6818 26.6049 33.6557 25.9209 33.6557H22.2227C20.7658 33.6557 19.5909 33.3208 18.8145 32.5444L18.8076 32.5375L18.8008 32.5297C18.0322 31.6971 17.7032 30.419 17.7031 28.8149C17.7031 27.3157 18.0599 26.1218 18.9092 25.392L19.0684 25.2543C19.8895 24.5882 21.0494 24.2953 22.4639 24.2953H26.0811C26.7651 24.2953 27.5044 24.2692 28.2988 24.2162L28.3008 24.2153L28.5996 24.1909C29.2832 24.1204 29.9248 23.9556 30.5273 23.6996C31.1794 23.3717 31.7265 22.8557 32.1641 22.1264L32.2393 21.9926C32.607 21.3002 32.8164 20.2684 32.8164 18.8461C32.8164 16.5156 32.196 14.946 31.0674 14.0053L31.0586 13.9975L31.0498 13.9907C29.9603 12.9959 27.9786 12.4331 24.9561 12.433H11.2275V48.5727Z" fill="#1982FF" stroke="#1982FF"/>
<g opacity="0.57">
<path d="M203.278 6.2946C208.187 5.62786 212.805 5.52032 216.656 5.88152C220.267 6.2202 223.202 6.97146 225.07 8.06023L225.429 8.28191C226.441 8.94596 227.074 9.72404 227.256 10.6003L227.286 10.777C227.312 10.9663 227.316 11.1574 227.3 11.3503L227.298 11.3669L227.303 11.3659L225.733 52.4499C225.708 53.1407 225.516 53.8175 225.161 54.4059L224.999 54.652C223.858 56.2398 222.017 57.4568 219.586 58.3952C217.155 59.3335 214.136 59.9936 210.64 60.4684H210.637L209.345 60.6325C206.378 60.9795 203.732 61.0811 201.464 60.8571C199.033 60.6171 197.036 60.0026 195.541 58.9167L195.248 58.693C194.711 58.259 194.305 57.6863 194.051 57.0456L193.951 56.7673L181.474 17.5759V17.5749C181.425 17.4385 181.386 17.3003 181.358 17.1598L181.335 17.0192C181.193 15.9734 181.697 14.8877 182.735 13.82C183.773 12.7524 185.343 11.7034 187.329 10.7321C191.052 8.91097 196.233 7.36246 202.096 6.4655L203.278 6.2946Z" fill="#F3F2E9" stroke="#1982FF" stroke-width="0.0259044"/>
</g>
<g opacity="0.66">
<path d="M209.581 5.72961C210.567 5.47082 211.362 5.41518 211.964 5.49329C212.566 5.57145 212.974 5.78378 213.188 6.06165C213.401 6.33888 213.423 6.68334 213.248 7.0304C213.095 7.33448 212.791 7.6406 212.332 7.90344L212.126 8.01379C210.976 8.58474 208.891 9.03615 206.914 9.20911C205.926 9.29554 204.966 9.31182 204.164 9.23938C203.462 9.17591 202.882 9.04424 202.512 8.83215L202.366 8.73645C202.013 8.4675 201.895 8.18198 201.913 7.9054C201.932 7.62763 202.089 7.35578 202.292 7.11633C202.495 6.8771 202.743 6.67155 202.94 6.52551C203.038 6.45254 203.124 6.39435 203.185 6.35461C203.215 6.33479 203.239 6.31904 203.256 6.30872C203.264 6.30355 203.271 6.29962 203.276 6.297L203.278 6.29504L203.281 6.29602C203.285 6.29689 203.292 6.29836 203.301 6.29993C203.319 6.30314 203.347 6.30817 203.383 6.3136C203.455 6.3245 203.563 6.33865 203.704 6.35266C203.987 6.38073 204.406 6.40731 204.948 6.40149C205.895 6.39131 207.221 6.28182 208.86 5.90735L209.581 5.72961Z" fill="white" stroke="#1982FF" stroke-width="0.0259044"/>
</g>
<g opacity="0.66">
<path d="M195.474 19.3694L196.264 19.3899C196.767 19.4085 197.132 19.5052 197.385 19.6555C197.637 19.8057 197.778 20.0097 197.832 20.2434C197.927 20.6538 197.755 21.1598 197.441 21.6341L197.298 21.8352C197.099 22.0968 196.745 22.2869 196.299 22.4055C195.854 22.5241 195.318 22.5712 194.757 22.5471C193.706 22.502 192.57 22.2079 191.78 21.6751L191.626 21.5657C191.23 21.2645 191.015 20.9788 190.914 20.721C190.813 20.4634 190.825 20.2323 190.887 20.0384C190.949 19.8442 191.06 19.6871 191.156 19.5784C191.203 19.5242 191.247 19.4819 191.279 19.4534C191.295 19.4392 191.308 19.4284 191.317 19.4212C191.321 19.4175 191.325 19.4152 191.327 19.4134L191.328 19.4124C191.329 19.4124 191.33 19.4124 191.331 19.4124C191.337 19.4122 191.346 19.4118 191.357 19.4114C191.379 19.4107 191.411 19.4097 191.452 19.4085C191.536 19.406 191.659 19.4027 191.812 19.3987C192.118 19.3907 192.547 19.3808 193.038 19.3733C193.776 19.3621 194.655 19.356 195.474 19.3694Z" fill="white" stroke="#1982FF" stroke-width="0.0259044"/>
</g>
<g opacity="0.19">
<path d="M197.474 9.45724C197.468 9.49166 197.459 9.54273 197.449 9.60959C197.43 9.7437 197.404 9.94201 197.38 10.1955C197.332 10.7025 197.292 11.434 197.321 12.3313C197.378 14.1224 197.711 16.5755 198.813 19.2287C198.81 19.229 198.806 19.2303 198.802 19.2307C198.783 19.2323 198.755 19.2346 198.719 19.2375C198.646 19.2434 198.538 19.2522 198.4 19.2619C198.123 19.2814 197.724 19.306 197.235 19.3283C196.256 19.373 194.917 19.4066 193.477 19.3625C192.036 19.3184 190.493 19.1971 189.107 18.9309C187.807 18.6812 186.645 18.3045 185.833 17.7473L185.676 17.634L185.674 17.632H185.673L185.663 17.6272C185.656 17.6234 185.645 17.6172 185.632 17.6096C185.605 17.5945 185.567 17.5723 185.521 17.5422C185.428 17.4818 185.304 17.3912 185.177 17.2717C184.923 17.0325 184.66 16.677 184.618 16.2112C184.577 15.7456 184.756 15.1667 185.394 14.4787C186.031 13.7909 187.125 12.9949 188.911 12.0969L193.696 10.5403L197.479 9.42599C197.477 9.43409 197.476 9.44459 197.474 9.45724Z" fill="#390073" stroke="#1982FF" stroke-width="0.0259044"/>
</g>
<g opacity="0.6">
<path d="M187.83 17.53C188.427 17.5749 189.039 17.7466 189.529 17.9646L189.731 18.0612C190.603 18.5036 190.952 19.0731 191.288 19.653C191.603 20.1973 191.908 20.7506 192.625 21.2107L192.773 21.3015C193.582 21.7688 194.221 21.7498 194.974 21.696C195.633 21.649 196.38 21.5751 197.41 21.7732L197.869 21.8757C198.656 22.0749 199.084 22.3018 199.613 22.6404C200.076 22.9368 200.617 23.3198 201.544 23.8454L201.966 24.0798C202.943 24.6107 205.365 25.9273 208.181 26.6003L208.75 26.7263C209.104 26.7981 209.304 26.8267 210.175 26.8366C210.611 26.8416 211.215 26.8415 212.09 26.8405L215.633 26.8366C217.977 26.8357 219.737 26.8416 220.995 27.0124C222.174 27.1726 222.906 27.4774 223.261 28.0544L223.327 28.1736C223.454 28.43 223.496 28.6879 223.502 28.903L223.5 29.1023L222.809 50.0583C222.757 51.6261 221.872 53.0342 220.506 53.7751L220.227 53.9138C214.45 56.543 205.842 57.6482 200.148 56.863L199.607 56.781C198.083 56.5296 196.819 55.4842 196.26 54.0593L196.158 53.7693L189.52 32.6169V32.615L189.517 32.6091L189.319 32.0202L188.757 30.5007C188.364 29.4462 188.027 28.5635 187.769 27.8952L187.258 26.5769C186.721 25.1797 186.029 23.3821 185.667 21.7585C185.485 20.9467 185.385 20.1789 185.428 19.5271C185.466 18.9566 185.613 18.4758 185.907 18.1316L186.043 17.9929C186.484 17.5939 187.146 17.4787 187.83 17.53Z" fill="#4FE2FF" stroke="#1982FF" stroke-width="0.0259044"/>
</g>
<path d="M187.846 17.077C188.525 17.1264 189.202 17.3242 189.723 17.5565L189.936 17.6581C190.7 18.0455 191.116 18.5319 191.426 19.0096L191.709 19.4803C191.988 19.9618 192.234 20.3876 192.757 20.7557L192.999 20.91C193.55 21.2283 194.004 21.2851 194.524 21.2694L195.072 21.2362C195.71 21.1892 196.485 21.1327 197.52 21.3348L197.98 21.4384C198.749 21.6331 199.211 21.8584 199.701 22.161L200.212 22.4911C200.561 22.7207 200.974 22.993 201.549 23.327L202.183 23.6825C203.124 24.194 205.525 25.4996 208.284 26.16L208.839 26.2831C209.233 26.3628 209.397 26.3849 210.922 26.3885L212.959 26.3876L215.633 26.3846C217.993 26.3836 219.82 26.3829 221.158 26.5819C222.412 26.7686 223.231 27.1309 223.653 27.829L223.732 27.9725C223.881 28.2715 223.955 28.6067 223.955 28.9706L223.951 29.1278L223.26 50.0731C223.203 51.8087 222.241 53.3495 220.725 54.1708L220.414 54.3251C215.938 56.3623 209.611 57.5711 204.167 57.5712C202.722 57.5712 201.339 57.4859 200.07 57.3085L199.534 57.2274C197.848 56.9493 196.46 55.8126 195.84 54.2274L195.727 53.9052L189.093 32.7635H189.092L189.089 32.7548L188.891 32.1649L188.334 30.6591C188.014 29.8005 187.73 29.0537 187.496 28.4452L186.961 27.0604L186.836 26.7391C186.263 25.249 185.544 23.3791 185.191 21.6805C185.014 20.8313 184.93 20.0255 185 19.3319C185.062 18.725 185.242 18.205 185.583 17.8163L185.739 17.6581C186.291 17.1592 187.069 17.0207 187.846 17.077ZM187.793 17.9559C187.277 17.9194 186.795 17.9895 186.461 18.2069L186.328 18.3094C185.993 18.6123 185.852 19.1219 185.842 19.7499C185.832 20.3784 185.954 21.1286 186.145 21.9159C186.432 23.0969 186.877 24.3633 187.278 25.4315L187.656 26.4237L187.78 26.7421C187.899 27.0482 188.082 27.5203 188.316 28.1307L189.157 30.3524L189.719 31.8739L189.919 32.4667L189.926 32.4872L196.565 53.6425C196.987 54.987 198.061 55.987 199.404 56.3065L199.676 56.3612C202.588 56.8414 206.281 56.7696 209.946 56.2596C213.382 55.7816 216.794 54.9183 219.516 53.7616L220.05 53.5262C221.352 52.9338 222.219 51.7239 222.364 50.326L222.383 50.0448L223.074 29.0887C223.086 28.8781 223.065 28.69 223.011 28.5233L222.946 28.3632C222.807 28.0855 222.543 27.8781 222.161 27.7235C221.778 27.569 221.276 27.4666 220.661 27.3983C219.737 27.2959 218.555 27.2706 217.134 27.2645L215.633 27.2626L212.96 27.2655C209.868 27.2699 209.378 27.2703 208.884 27.1854L208.664 27.1434C205.937 26.5902 203.491 25.3769 202.229 24.705L201.763 24.454C201.044 24.063 200.529 23.7442 200.115 23.4764L199.729 23.2245C199.119 22.8232 198.748 22.5793 198.074 22.3749L197.765 22.2889C196.914 22.0735 196.254 22.0523 195.682 22.077L195.136 22.1122C194.359 22.1694 193.626 22.2227 192.74 21.7684L192.56 21.6698C191.886 21.2805 191.506 20.8161 191.216 20.3641L190.95 19.9198C190.657 19.4139 190.398 18.9668 189.811 18.5956L189.538 18.4413C189.022 18.1792 188.384 17.9977 187.793 17.9559Z" fill="#50A7EF" stroke="#1982FF" stroke-width="0.0259044"/>
<path d="M201.601 50.9697C206.365 49.1877 212.316 48.3543 217.407 49.0497L217.896 49.121C218.578 49.2443 219.259 49.4014 219.916 49.6494L220.197 49.7607C220.298 49.8036 220.353 49.9117 220.332 50.0156L220.318 50.0595C220.277 50.1556 220.178 50.2089 220.08 50.1962L220.038 50.1874C219.501 50.0086 218.942 49.8827 218.375 49.7929L217.807 49.7148C215.326 49.4038 211.62 49.5546 208.04 50.1747C204.686 50.756 201.44 51.75 199.419 53.164L199.032 53.4531H199.031C198.823 53.6445 198.595 53.8589 198.451 54.0956C198.324 54.3032 198.262 54.5292 198.333 54.7734L198.373 54.8798L198.374 54.8808C198.626 55.2779 199.075 55.55 199.574 55.749C199.948 55.8982 200.352 56.0075 200.723 56.0966L201.082 56.1796H201.082C202.382 56.4407 203.725 56.5327 205.059 56.5488L205.629 56.5507C206.781 56.5422 207.935 56.4731 209.084 56.3583L210.232 56.2294C210.766 56.1766 210.901 56.8995 210.448 57.0722L210.349 57.0995C207.417 57.4979 204.413 57.6838 201.477 57.2148L200.891 57.1122C199.972 56.9153 198.944 56.644 198.148 56.0351L197.992 55.9091C197.417 55.3959 197.264 54.81 197.381 54.249C197.485 53.7574 197.797 53.2831 198.22 52.8915L198.409 52.7285C199.236 52.0379 200.202 51.5543 201.181 51.1425L201.601 50.9697Z" fill="#50A7EF" stroke="#1982FF" stroke-width="0.0259044"/>
<path d="M221.176 27.8704C221.239 27.7956 221.343 27.7746 221.428 27.8128L221.463 27.8333C221.624 27.9468 221.78 28.0771 221.914 28.2454V28.2444C222.084 28.4824 222.163 28.7132 222.17 28.9349C222.178 29.1563 222.114 29.3702 221.995 29.5755C221.755 29.987 221.295 30.3632 220.75 30.6937C219.933 31.1892 218.929 31.5802 218.205 31.8362L217.592 32.0462C214.528 33.0379 211.345 33.5899 208.15 33.9612L206.78 34.1107C202.395 34.5059 197.876 34.8218 193.577 33.6732H193.578C192.958 33.4799 192.278 33.2436 191.687 32.8919C191.096 32.5405 190.595 32.0744 190.329 31.4212C190.294 31.3023 190.223 31.1033 190.207 30.929C190.199 30.8419 190.205 30.7626 190.235 30.7034C190.264 30.6457 190.315 30.6048 190.404 30.595C190.502 30.5891 190.589 30.6517 190.619 30.7405L190.628 30.7806V30.7816C190.728 31.3721 191.121 31.8303 191.682 32.1868C192.243 32.5434 192.974 32.799 193.751 32.9847C194.918 33.2632 196.192 33.3847 197.164 33.4505L198.021 33.5013C203.429 33.7322 208.901 33.1668 214.201 32.0423L215.258 31.8099C216.489 31.5293 217.714 31.2042 218.889 30.7786L219.39 30.5901C219.947 30.3667 220.525 30.1119 221.009 29.7601L221.21 29.6028C221.487 29.3775 221.642 29.1463 221.649 28.9066C221.654 28.6967 221.546 28.4837 221.313 28.2659L221.205 28.1722C221.125 28.1065 221.105 27.9945 221.153 27.9066L221.176 27.8704Z" fill="#50A7EF" stroke="#1982FF" stroke-width="0.0259044"/>
<g opacity="0.66">
<path d="M195.484 23.3926C196.854 23.4247 198.263 23.8691 199.308 24.3877C199.831 24.647 200.261 24.9253 200.55 25.1787C200.695 25.3055 200.804 25.4257 200.871 25.5342C200.921 25.6158 200.948 25.6896 200.949 25.7539L200.941 25.8155C200.899 25.9737 200.775 26.0725 200.59 26.1221C200.403 26.1719 200.156 26.1722 199.872 26.1348C199.445 26.0787 198.937 25.9385 198.427 25.7578L197.922 25.5645C197.585 25.4282 197.223 25.4114 196.853 25.4375C196.668 25.4506 196.481 25.4745 196.295 25.5C196.108 25.5256 195.92 25.5528 195.735 25.5723C195.364 25.6113 195.002 25.6199 194.664 25.5244C194.368 25.441 194.091 25.2775 193.841 24.9854L193.736 24.8526V24.8516C193.736 24.8509 193.735 24.85 193.734 24.8487C193.732 24.8458 193.729 24.8415 193.726 24.836C193.72 24.8249 193.71 24.8088 193.7 24.7881C193.678 24.7464 193.651 24.6865 193.627 24.6153C193.578 24.4727 193.541 24.2842 193.589 24.0987C193.636 23.914 193.767 23.7299 194.057 23.5957C194.312 23.478 194.689 23.3989 195.238 23.3916L195.484 23.3926Z" fill="white" stroke="#1982FF" stroke-width="0.0259044"/>
</g>
<g opacity="0.66">
<path d="M217.446 27.9566C217.693 27.9654 217.918 27.9874 218.106 28.0259C218.247 28.0549 218.366 28.0932 218.459 28.1422L218.543 28.1949C218.943 28.4994 219.102 29.0022 218.818 29.4537C218.551 29.8782 217.89 30.2618 216.658 30.3912L216.403 30.4136C215.008 30.5143 213.69 30.071 213.039 29.5611C212.876 29.4337 212.756 29.3025 212.686 29.1754C212.617 29.0484 212.598 28.926 212.638 28.815C212.677 28.7039 212.775 28.601 212.943 28.5152C213.069 28.4509 213.235 28.3965 213.443 28.355L213.667 28.3179H213.669L213.671 28.317C213.673 28.3166 213.676 28.3166 213.68 28.316C213.687 28.3146 213.699 28.3127 213.714 28.3101C213.744 28.3049 213.788 28.2971 213.845 28.2877C213.958 28.2687 214.12 28.2421 214.317 28.2125C214.712 28.1531 215.247 28.0804 215.806 28.0269C216.366 27.9734 216.951 27.9391 217.446 27.9566Z" fill="white" stroke="#1982FF" stroke-width="0.0259044"/>
</g>
<g opacity="0.66">
<path d="M197.565 36.0921C199.011 36.0643 199.979 37.2135 200.756 39.0608C201.338 40.4457 201.811 42.219 202.297 44.1731L202.791 46.18C203.468 48.9152 203.912 50.8093 203.956 52.0511C203.978 52.6718 203.9 53.1271 203.704 53.4427C203.533 53.718 203.27 53.8891 202.9 53.969L202.735 53.9973C201.815 54.1224 200.888 54.1502 200.06 53.5169C199.282 52.9226 198.589 51.7446 198.071 49.51L197.97 49.0491C197.381 46.2158 196.858 43.8722 196.481 42.2376C196.292 41.4203 196.14 40.7799 196.035 40.344C195.983 40.1262 195.943 39.9593 195.915 39.847C195.901 39.7909 195.891 39.7485 195.884 39.72C195.88 39.7058 195.878 39.695 195.876 39.6878C195.875 39.6845 195.875 39.6818 195.874 39.68L195.873 39.677V39.6751L195.872 39.6731C195.872 39.6714 195.871 39.6686 195.87 39.6653C195.868 39.6587 195.864 39.6488 195.86 39.636C195.852 39.6102 195.841 39.572 195.827 39.5237C195.8 39.4269 195.764 39.2885 195.731 39.1223C195.663 38.7898 195.604 38.3465 195.635 37.9016C195.666 37.4566 195.788 37.0114 196.081 36.6741C196.338 36.3793 196.727 36.1649 197.306 36.1067L197.565 36.0921Z" fill="white" stroke="#1982FF" stroke-width="0.0259044"/>
</g>
<g opacity="0.19">
<path d="M196.498 59.5125H196.499C199.629 60.6351 204.006 60.6224 209.338 59.8983L209.342 59.8973L210.63 59.7108C213.583 59.2536 216.161 58.6452 218.288 57.8241C220.719 56.8857 222.56 55.6695 223.7 54.0819L223.862 53.8348C224.217 53.2466 224.41 52.5703 224.435 51.8797L225.906 13.3622C224.546 15.3051 221.569 17.2579 216.963 18.7772C218.513 33.5242 218.099 44.2323 214.789 50.8924C213.133 54.2238 210.754 56.5432 207.533 57.8475C204.323 59.1474 200.279 59.4384 195.287 58.7225C195.657 59.0165 196.06 59.2794 196.496 59.5116H196.499L196.498 59.5125ZM196.498 59.5125L196.497 59.5174H196.496L196.498 59.5125Z" fill="#390073" stroke="#1982FF" stroke-width="0.0259044"/>
</g>
<path d="M203.217 5.84749C209.016 5.05973 214.591 5.01841 219.04 5.72249L219.915 5.87288C222.286 6.31637 224.166 6.96883 225.49 7.78987C226.732 8.55965 227.484 9.47724 227.698 10.5086L227.733 10.7166C227.76 10.9137 227.768 11.1157 227.756 11.3182L227.768 11.3192L227.755 11.3182L227.756 11.3201V11.367L226.185 52.4666C226.155 53.256 225.934 54.003 225.543 54.6463L225.365 54.9158C223.258 57.8496 218.821 59.7315 211.427 60.8133L210.701 60.9158C208.211 61.2542 206.006 61.4246 204.064 61.4246L203.298 61.4158C199.785 61.3301 197.189 60.6417 195.348 59.3348L194.966 59.0457C194.379 58.5723 193.923 57.9458 193.635 57.2205L193.521 56.9041L181.048 17.7215H181.047C180.989 17.5639 180.946 17.4026 180.915 17.241L180.888 17.0799C180.736 15.9638 181.213 14.8055 182.27 13.661C183.195 12.6596 184.564 11.6693 186.344 10.7274L187.131 10.327C191.056 8.40682 196.323 6.88814 202.062 6.0135L203.217 5.84749ZM226.876 11.3944V11.3153C226.882 11.2342 226.885 11.1532 226.883 11.0731L226.863 10.8338C226.74 9.92867 226.028 9.10382 224.816 8.40608C223.755 7.79526 222.309 7.28094 220.534 6.89436L219.754 6.73616C217.49 6.31267 214.886 6.10142 212.081 6.10139C209.663 6.10139 207.096 6.2586 204.466 6.57307L203.335 6.71663C197.621 7.4928 192.327 8.91457 188.305 10.744L187.516 11.1151C185.566 12.0692 184.066 13.0789 183.084 14.075C182.163 15.0088 181.695 15.9329 181.742 16.7908L181.758 16.9617C181.768 17.0399 181.784 17.1181 181.804 17.1961L181.875 17.4285L181.881 17.4461L194.357 56.6375C194.551 57.2458 194.882 57.7787 195.321 58.1922L195.516 58.3621C196.87 59.4517 198.744 60.1298 201.224 60.4071C203.395 60.6497 206.032 60.5849 209.192 60.2205L210.579 60.0467C214.366 59.5323 217.377 58.8264 219.695 57.8973C221.868 57.0262 223.433 55.9581 224.455 54.6649L224.652 54.4041C225.004 53.9142 225.221 53.3307 225.289 52.7039L225.308 52.4334L226.876 11.3963H226.877L226.876 11.3944Z" fill="#390077" stroke="#1982FF" stroke-width="0.0259044"/>
<g opacity="0.25">
<path d="M204.415 66.6035C210.353 66.6035 215.729 66.8945 219.62 67.3652C221.566 67.6006 223.14 67.8814 224.228 68.1924C224.771 68.3479 225.193 68.5102 225.478 68.6787C225.764 68.8478 225.908 69.0204 225.908 69.1924C225.908 69.3643 225.763 69.536 225.478 69.7051C225.193 69.8736 224.771 70.0369 224.228 70.1924C223.14 70.5033 221.566 70.7842 219.62 71.0195C215.729 71.4902 210.353 71.7812 204.415 71.7812C198.477 71.7812 193.101 71.4902 189.21 71.0195C187.264 70.7842 185.69 70.5033 184.603 70.1924C184.059 70.0369 183.638 69.8736 183.353 69.7051C183.067 69.536 182.922 69.3643 182.922 69.1924C182.922 69.0204 183.067 68.8478 183.353 68.6787C183.638 68.5102 184.059 68.3479 184.603 68.1924C185.69 67.8814 187.264 67.6006 189.21 67.3652C193.101 66.8946 198.477 66.6035 204.415 66.6035Z" fill="#390077" stroke="#1982FF" stroke-width="0.0259044"/>
</g>
<path d="M209.102 7.71078C211.013 7.5706 213.857 7.42752 216.611 7.61411C217.988 7.70741 219.342 7.88389 220.545 8.18344C221.597 8.44564 222.534 8.802 223.269 9.2811L223.571 9.49399C224.217 10.005 224.573 10.8425 224.324 11.6405L224.266 11.7997C223.854 12.7993 222.828 13.6442 221.663 14.3358C220.79 14.8543 219.84 15.2863 219.015 15.6317L218.24 15.9481C210.407 18.838 199.255 20.4312 190.788 19.5077L189.977 19.41C189.003 19.2584 187.357 18.9642 186.06 18.3573C185.412 18.0538 184.852 17.6726 184.507 17.1932C184.162 16.7147 184.029 16.1377 184.237 15.4393C184.603 14.4393 185.634 13.5878 186.811 12.8954C187.988 12.2033 189.309 11.6717 190.25 11.3094L190.249 11.3084C192.874 10.3352 195.579 9.65087 198.309 9.13461L199.481 8.92368C199.583 8.90635 199.68 8.96322 199.716 9.05551L199.727 9.0975C199.744 9.19635 199.689 9.29104 199.601 9.32895L199.561 9.34164C195.977 10.1317 192.377 11.0736 189.04 12.6209L188.377 12.9383H188.376C187.59 13.3425 186.857 13.7775 186.275 14.2245C185.694 14.6713 185.263 15.1316 185.085 15.5848C184.995 15.8117 184.969 16.0372 185.019 16.2586C185.069 16.48 185.195 16.6966 185.409 16.9051C185.783 17.2698 186.426 17.6119 187.402 17.9198L187.841 18.0497H187.842C189.814 18.5691 191.861 18.7533 193.906 18.8299L194.782 18.8573C202.357 18.9077 210.052 17.8533 217.219 15.3426L217.912 15.0946C218.619 14.8253 220.193 14.1904 221.499 13.3885C222.151 12.9877 222.738 12.5446 223.116 12.0838C223.47 11.6517 223.643 11.2014 223.511 10.7557L223.481 10.6668L223.48 10.6659L223.409 10.5409C223.228 10.2553 222.95 10.0097 222.613 9.7977C222.228 9.55554 221.765 9.35674 221.28 9.19223C220.552 8.94538 219.771 8.77549 219.127 8.65219L218.534 8.54282L217.952 8.4559C215.039 8.04799 212.067 8.03246 209.127 8.13657L209.077 8.13266C209.031 8.12448 208.995 8.10378 208.968 8.07602C208.931 8.03866 208.911 7.98756 208.908 7.93539C208.903 7.8443 208.951 7.75133 209.054 7.72055L209.102 7.71078Z" fill="#390077" stroke="#1982FF" stroke-width="0.0259044"/>
<g opacity="0.6">
<mask id="path-21-inside-1_14_322" fill="white">
<path d="M191.48 13.3912C191.503 9.0778 189.954 4.46842 186.359 2.08332C185.689 1.63867 184.91 1.26992 184.111 1.35764C183.311 1.44535 182.54 2.145 182.63 2.94405C182.672 3.31197 182.883 3.6723 182.794 4.03177C182.631 4.6927 181.709 4.72283 181.042 4.58747C178.5 4.07187 175.985 3.32306 173.393 3.22369C170.802 3.12432 168.037 3.77573 166.249 5.6537C164.461 7.53167 164.062 10.8249 165.874 12.6802C167.207 14.0447 169.334 14.3291 171.21 13.9894C173.087 13.6497 174.82 12.7849 176.613 12.1371C179.147 11.222 181.884 10.7342 184.549 11.1271C187.215 11.5201 189.801 12.8638 191.355 15.0643C191.654 13.9736 191.763 12.8313 191.676 11.7039"/>
</mask>
<path d="M191.48 13.3912C191.503 9.0778 189.954 4.46842 186.359 2.08332C185.689 1.63867 184.91 1.26992 184.111 1.35764C183.311 1.44535 182.54 2.145 182.63 2.94405C182.672 3.31197 182.883 3.6723 182.794 4.03177C182.631 4.6927 181.709 4.72283 181.042 4.58747C178.5 4.07187 175.985 3.32306 173.393 3.22369C170.802 3.12432 168.037 3.77573 166.249 5.6537C164.461 7.53167 164.062 10.8249 165.874 12.6802C167.207 14.0447 169.334 14.3291 171.21 13.9894C173.087 13.6497 174.82 12.7849 176.613 12.1371C179.147 11.222 181.884 10.7342 184.549 11.1271C187.215 11.5201 189.801 12.8638 191.355 15.0643C191.654 13.9736 191.763 12.8313 191.676 11.7039" fill="#4FE2FF"/>
<path d="M186.359 2.08332L186.374 2.06174V2.06174L186.359 2.08332ZM182.63 2.94405L182.605 2.94696V2.94696L182.63 2.94405ZM182.794 4.03177L182.769 4.02556L182.769 4.02556L182.794 4.03177ZM181.042 4.58747L181.036 4.61286V4.61286L181.042 4.58747ZM166.249 5.6537L166.23 5.63584H166.23L166.249 5.6537ZM165.874 12.6802L165.893 12.6621L165.874 12.6802ZM176.613 12.1371L176.604 12.1127L176.613 12.1371ZM191.355 15.0643L191.334 15.0792L191.366 15.1241L191.38 15.0711L191.355 15.0643ZM191.48 13.3912L191.506 13.3914C191.529 9.07316 189.978 4.4535 186.374 2.06174L186.359 2.08332L186.345 2.10491C189.929 4.48334 191.477 9.08243 191.454 13.3911L191.48 13.3912ZM186.359 2.08332L186.374 2.06174C185.703 1.61627 184.917 1.24314 184.108 1.33189L184.111 1.35764L184.114 1.38339C184.904 1.2967 185.676 1.66108 186.345 2.10491L186.359 2.08332ZM184.111 1.35764L184.108 1.33189C183.702 1.37642 183.304 1.57609 183.018 1.86591C182.733 2.15582 182.558 2.53788 182.605 2.94696L182.63 2.94405L182.656 2.94113C182.612 2.55117 182.778 2.18388 183.055 1.90227C183.333 1.62057 183.72 1.42656 184.114 1.38339L184.111 1.35764ZM182.63 2.94405L182.605 2.94696C182.626 3.13333 182.69 3.31938 182.736 3.49757C182.783 3.67772 182.812 3.85238 182.769 4.02556L182.794 4.03177L182.819 4.03799C182.865 3.85169 182.833 3.66645 182.786 3.48459C182.739 3.30076 182.677 3.12269 182.656 2.94113L182.63 2.94405ZM182.794 4.03177L182.769 4.02556C182.691 4.34253 182.431 4.51078 182.101 4.58292C181.772 4.65511 181.378 4.62935 181.047 4.56209L181.042 4.58747L181.036 4.61286C181.372 4.68095 181.773 4.7078 182.112 4.63353C182.452 4.55922 182.734 4.38194 182.819 4.03799L182.794 4.03177ZM181.042 4.58747L181.047 4.56209C178.508 4.04711 175.989 3.29728 173.394 3.1978L173.393 3.22369L173.392 3.24957C175.981 3.34883 178.492 4.09664 181.036 4.61286L181.042 4.58747ZM173.393 3.22369L173.394 3.1978C170.799 3.09828 168.026 3.75039 166.23 5.63584L166.249 5.6537L166.268 5.67157C168.049 3.80108 170.805 3.15035 173.392 3.24957L173.393 3.22369ZM166.249 5.6537L166.23 5.63584C165.332 6.5794 164.783 7.87792 164.686 9.17351C164.589 10.4692 164.943 11.7642 165.856 12.6983L165.874 12.6802L165.893 12.6621C164.993 11.7409 164.641 10.4616 164.737 9.17738C164.834 7.89303 165.378 6.60597 166.268 5.67157L166.249 5.6537ZM165.874 12.6802L165.856 12.6983C167.196 14.0714 169.334 14.3554 171.215 14.0149L171.21 13.9894L171.205 13.9639C169.333 14.3028 167.217 14.0179 165.893 12.6621L165.874 12.6802ZM171.21 13.9894L171.215 14.0149C172.155 13.8447 173.059 13.5429 173.952 13.203C174.846 12.8627 175.725 12.4855 176.622 12.1615L176.613 12.1371L176.604 12.1127C175.708 12.4366 174.824 12.8157 173.934 13.1546C173.042 13.494 172.141 13.7945 171.205 13.9639L171.21 13.9894ZM176.613 12.1371L176.622 12.1615C179.153 11.2473 181.886 10.7606 184.546 11.1528L184.549 11.1271L184.553 11.1015C181.882 10.7078 179.141 11.1967 176.604 12.1127L176.613 12.1371ZM184.549 11.1271L184.546 11.1528C187.205 11.5449 189.785 12.8857 191.334 15.0792L191.355 15.0643L191.377 15.0493C189.817 12.8419 187.224 11.4953 184.553 11.1015L184.549 11.1271ZM191.355 15.0643L191.38 15.0711C191.68 13.9776 191.789 12.8323 191.702 11.7019L191.676 11.7039L191.65 11.7059C191.737 12.8304 191.628 13.9696 191.33 15.0574L191.355 15.0643Z" fill="#1982FF" mask="url(#path-21-inside-1_14_322)"/>
</g>
<g opacity="0.32">
<mask id="path-23-inside-2_14_322" fill="white">
<path d="M177.71 11.7453C179.86 10.6365 182.311 10.1389 184.727 10.2464C185.659 10.2878 186.597 10.4165 187.519 10.2754C188.44 10.1342 189.374 9.66355 189.783 8.82534C190.318 7.72735 189.805 6.43058 189.295 5.32101C191.336 7.98635 192.097 11.5889 191.308 14.8519C190.707 13.9274 189.722 13.3354 188.772 12.7753C188.115 12.388 187.456 11.9996 186.757 11.6942C183.959 10.4716 180.694 10.6756 177.807 11.6702"/>
</mask>
<path d="M177.71 11.7453C179.86 10.6365 182.311 10.1389 184.727 10.2464C185.659 10.2878 186.597 10.4165 187.519 10.2754C188.44 10.1342 189.374 9.66355 189.783 8.82534C190.318 7.72735 189.805 6.43058 189.295 5.32101C191.336 7.98635 192.097 11.5889 191.308 14.8519C190.707 13.9274 189.722 13.3354 188.772 12.7753C188.115 12.388 187.456 11.9996 186.757 11.6942C183.959 10.4716 180.694 10.6756 177.807 11.6702" fill="#390073"/>
<path d="M184.727 10.2464L184.726 10.2723L184.727 10.2464ZM187.519 10.2754L187.523 10.301L187.519 10.2754ZM189.783 8.82534L189.806 8.83668L189.783 8.82534ZM189.295 5.32101L189.316 5.30527L189.272 5.33184L189.295 5.32101ZM191.308 14.8519L191.287 14.866L191.32 14.9164L191.334 14.858L191.308 14.8519ZM188.772 12.7753L188.759 12.7976L188.772 12.7753ZM186.757 11.6942L186.746 11.718L186.757 11.6942ZM177.71 11.7453L177.722 11.7684C179.868 10.6617 182.314 10.165 184.726 10.2723L184.727 10.2464L184.729 10.2205C182.308 10.1129 179.852 10.6113 177.698 11.7223L177.71 11.7453ZM184.727 10.2464L184.726 10.2723C185.654 10.3136 186.598 10.4427 187.523 10.301L187.519 10.2754L187.515 10.2498C186.597 10.3904 185.663 10.2621 184.729 10.2205L184.727 10.2464ZM187.519 10.2754L187.523 10.301C188.449 10.1592 189.393 9.68553 189.806 8.83668L189.783 8.82534L189.759 8.81399C189.356 9.64157 188.432 10.1093 187.515 10.2498L187.519 10.2754ZM189.783 8.82534L189.806 8.83668C190.077 8.28077 190.082 7.67572 189.956 7.07224C189.831 6.469 189.574 5.86512 189.319 5.31019L189.295 5.32101L189.272 5.33184C189.527 5.88647 189.781 6.48576 189.905 7.0828C190.03 7.67959 190.023 8.27192 189.759 8.81399L189.783 8.82534ZM189.295 5.32101L189.274 5.33676C191.311 7.99588 192.07 11.5904 191.283 14.8458L191.308 14.8519L191.334 14.858C192.124 11.5874 191.361 7.97681 189.316 5.30527L189.295 5.32101ZM191.308 14.8519L191.33 14.8377C190.725 13.9074 189.735 13.3126 188.785 12.753L188.772 12.7753L188.759 12.7976C189.71 13.3583 190.689 13.9475 191.287 14.866L191.308 14.8519ZM188.772 12.7753L188.785 12.753C188.128 12.3658 187.468 11.9766 186.767 11.6705L186.757 11.6942L186.746 11.718C187.444 12.0226 188.102 12.4102 188.759 12.7976L188.772 12.7753ZM186.757 11.6942L186.767 11.6705C183.961 10.4445 180.69 10.6497 177.799 11.6457L177.807 11.6702L177.816 11.6947C180.699 10.7015 183.956 10.4987 186.746 11.718L186.757 11.6942Z" fill="#1982FF" mask="url(#path-23-inside-2_14_322)"/>
</g>
<path d="M182.909 1.53223C183.901 0.692076 185.204 0.987339 186.234 1.60156L186.436 1.72852C186.669 1.88242 186.896 2.05092 187.118 2.22559L187.773 2.76074C188.08 3.01846 188.359 3.31613 188.618 3.62598L188.872 3.93945C189.482 4.71562 189.985 5.55654 190.391 6.45215L190.559 6.83984C190.931 7.73408 191.207 8.66737 191.392 9.61816L191.466 10.0264C191.547 10.5133 191.605 11.0032 191.642 11.4951C191.595 11.4987 191.549 11.5139 191.515 11.5449C191.485 11.5718 191.464 11.609 191.458 11.6553L191.457 11.7051C191.467 11.8454 191.46 11.9893 191.448 12.1338L191.414 12.5664C191.405 12.7616 191.394 12.9564 191.369 13.1494L191.34 13.3428C191.337 13.3591 191.333 13.3753 191.33 13.3916V13.3906C191.319 13.1228 191.295 12.8589 191.266 12.5957L191.172 11.8057C190.945 9.80224 190.4 7.80635 189.432 6.03027L189.233 5.67773C189.039 5.34795 188.829 5.02563 188.603 4.7168L188.37 4.41309C188.203 4.2046 188.027 4.00588 187.846 3.8125L187.289 3.24219C187.003 2.9548 186.693 2.71015 186.361 2.4873L186.023 2.27051C185.571 1.99557 185.07 1.74839 184.536 1.69922L184.305 1.69043C183.912 1.69847 183.495 1.87276 183.23 2.18066L183.125 2.32031C183.039 2.45631 182.983 2.5981 182.97 2.75L182.971 2.90527C182.987 3.07107 183.037 3.2294 183.082 3.38672C183.116 3.50528 183.147 3.62385 183.157 3.74609L183.161 3.86914C183.146 4.354 182.836 4.7147 182.408 4.87891L182.218 4.93652C181.824 5.02838 181.429 5.00005 181.036 4.93359L180.645 4.85742C178.142 4.3322 175.629 3.58991 173.052 3.56055L172.535 3.56445C170.477 3.62012 168.315 4.19402 166.776 5.61816L166.478 5.91406C165.206 7.26248 164.654 9.41002 165.312 11.1592L165.379 11.3271C165.742 12.176 166.439 12.8564 167.289 13.2646L167.462 13.3428C168.329 13.7132 169.295 13.8182 170.233 13.7617L170.632 13.7275C171.589 13.6239 172.522 13.3389 173.428 13.0059L174.325 12.6621C175.435 12.225 176.534 11.7721 177.673 11.4248L178.163 11.2822C180.55 10.6297 183.111 10.404 185.536 10.9629L186.02 11.085C187.997 11.6316 189.83 12.7055 191.162 14.2637C191.113 14.4993 191.06 14.7342 190.997 14.9658L190.992 14.9844L191.012 14.9814C191.121 14.9672 191.23 14.9537 191.339 14.9395C191.448 14.9252 191.557 14.9107 191.666 14.8965L191.688 14.8936L191.675 14.876C191.522 14.6615 191.36 14.4557 191.191 14.2568C191.244 14.001 191.291 13.7437 191.338 13.4873C191.346 13.4984 191.353 13.5099 191.362 13.5186C191.395 13.5469 191.437 13.5606 191.48 13.5605C191.564 13.5604 191.65 13.504 191.655 13.3916L191.693 12.5508C191.696 12.41 191.698 12.2692 191.697 12.1289L191.685 11.71C191.681 11.6465 191.675 11.583 191.67 11.5195C191.753 11.5228 191.837 11.5698 191.862 11.6611L191.869 11.7051C191.88 11.8499 191.903 11.993 191.924 12.1357C191.934 12.2072 191.944 12.279 191.952 12.3506L191.968 12.5674C191.976 12.854 191.965 13.1416 191.96 13.4287L191.951 13.6484C191.93 14.0141 191.874 14.3728 191.794 14.7295L191.689 15.1562C191.647 15.3089 191.531 15.3869 191.404 15.3984C191.309 15.4071 191.208 15.3779 191.128 15.3135L191.057 15.2373C190.816 14.8991 190.548 14.5817 190.258 14.2852L189.961 13.9951C188.364 12.5078 186.24 11.656 184.084 11.4131L183.653 11.373C181.028 11.176 178.479 11.7965 176.046 12.7197L175.561 12.9082C174.44 13.3538 173.323 13.8251 172.156 14.1318L171.652 14.2529C170.646 14.471 169.602 14.5349 168.585 14.3701L168.151 14.2861C167.137 14.0529 166.163 13.5448 165.476 12.7559L165.342 12.5938C164.686 11.7576 164.367 10.7192 164.352 9.66113L164.359 9.26465C164.403 8.47207 164.608 7.68615 164.945 6.96777L165.125 6.61426C165.601 5.74812 166.301 5.02939 167.111 4.46973L167.465 4.23926C169.404 3.05201 171.759 2.74978 173.999 2.91406L174.445 2.95312C175.53 3.0627 176.601 3.26046 177.666 3.48828L178.73 3.72363C179.079 3.80289 179.429 3.88318 179.778 3.96191L180.829 4.19141C181.232 4.27588 181.641 4.36273 182.031 4.27246L182.197 4.22266C182.214 4.21648 182.251 4.19522 182.286 4.17285C182.304 4.16151 182.322 4.14955 182.337 4.13867L182.372 4.10938C182.395 4.08515 182.413 4.064 182.428 4.03809C182.435 4.025 182.441 4.01027 182.446 3.99414L182.462 3.93945C182.491 3.79999 182.462 3.65316 182.421 3.50977C182.4 3.4373 182.377 3.36575 182.356 3.2959L182.305 3.09277C182.22 2.57321 182.397 2.06382 182.748 1.68555L182.909 1.53223ZM191.183 14.2891C191.343 14.4773 191.497 14.6708 191.642 14.873C191.54 14.8864 191.438 14.8998 191.336 14.9131C191.233 14.9266 191.13 14.9397 191.026 14.9531C191.085 14.7338 191.136 14.5119 191.183 14.2891ZM191.658 11.7109L191.672 12.1289C191.673 12.2689 191.67 12.4093 191.666 12.5498L191.63 13.3906C191.625 13.487 191.553 13.535 191.48 13.5352C191.443 13.5352 191.406 13.5229 191.379 13.499C191.365 13.4867 191.353 13.4711 191.345 13.4521L191.365 13.3467C191.389 13.2178 191.405 13.0881 191.416 12.958L191.441 12.5674C191.447 12.4259 191.463 12.2812 191.475 12.1357C191.48 12.0635 191.484 11.991 191.486 11.9189L191.483 11.7031C191.478 11.6404 191.499 11.5946 191.532 11.5645C191.562 11.5379 191.601 11.5238 191.644 11.5205C191.648 11.584 191.655 11.6474 191.658 11.7109Z" fill="#50A7EF" stroke="#1982FF" stroke-width="0.0259044"/>
<g opacity="0.66">
<mask id="path-26-inside-3_14_322" fill="white">
<path d="M171.741 5.12218C171.347 4.78934 170.761 4.84379 170.26 4.96564C169.263 5.20782 168.302 5.65307 167.547 6.34731C167.27 6.60164 167.017 6.89837 166.902 7.25611C166.787 7.61385 166.836 8.04265 167.1 8.30931C167.481 8.69287 168.132 8.60692 168.613 8.36044C169.094 8.11396 169.513 7.73661 170.031 7.58269C170.263 7.51378 170.506 7.49277 170.745 7.45775C171.162 7.39682 171.572 7.29248 171.967 7.14692C172.355 7.00396 172.764 6.78227 172.895 6.39018C173.042 5.94975 172.761 5.45777 172.367 5.21194C171.973 4.96608 171.494 4.90808 171.032 4.85591"/>
</mask>
<path d="M171.741 5.12218C171.347 4.78934 170.761 4.84379 170.26 4.96564C169.263 5.20782 168.302 5.65307 167.547 6.34731C167.27 6.60164 167.017 6.89837 166.902 7.25611C166.787 7.61385 166.836 8.04265 167.1 8.30931C167.481 8.69287 168.132 8.60692 168.613 8.36044C169.094 8.11396 169.513 7.73661 170.031 7.58269C170.263 7.51378 170.506 7.49277 170.745 7.45775C171.162 7.39682 171.572 7.29248 171.967 7.14692C172.355 7.00396 172.764 6.78227 172.895 6.39018C173.042 5.94975 172.761 5.45777 172.367 5.21194C171.973 4.96608 171.494 4.90808 171.032 4.85591" fill="white"/>
<path d="M170.26 4.96564L170.254 4.94047L170.254 4.94047L170.26 4.96564ZM167.547 6.34731L167.529 6.32824L167.529 6.32824L167.547 6.34731ZM167.1 8.30931L167.082 8.32756L167.082 8.32756L167.1 8.30931ZM170.031 7.58269L170.024 7.55785L170.024 7.55785L170.031 7.58269ZM170.745 7.45775L170.749 7.48338H170.749L170.745 7.45775ZM171.967 7.14692L171.958 7.12262L171.958 7.12262L171.967 7.14692ZM172.895 6.39018L172.871 6.38196V6.38196L172.895 6.39018ZM172.367 5.21194L172.353 5.23392L172.353 5.23392L172.367 5.21194ZM171.741 5.12218L171.758 5.10238C171.555 4.93121 171.304 4.86047 171.042 4.84753C170.78 4.83459 170.506 4.87927 170.254 4.94047L170.26 4.96564L170.266 4.99081C170.516 4.93016 170.785 4.88669 171.04 4.89927C171.294 4.91185 171.533 4.98031 171.725 5.14198L171.741 5.12218ZM170.26 4.96564L170.254 4.94047C169.254 5.18342 168.288 5.63036 167.529 6.32824L167.547 6.34731L167.564 6.36638C168.316 5.67577 169.272 5.23222 170.266 4.99081L170.26 4.96564ZM167.547 6.34731L167.529 6.32824C167.252 6.58364 166.994 6.88407 166.877 7.24818L166.902 7.25611L166.926 7.26403C167.039 6.91266 167.289 6.61963 167.564 6.36637L167.547 6.34731ZM166.902 7.25611L166.877 7.24818C166.76 7.6123 166.809 8.05214 167.082 8.32756L167.1 8.30931L167.119 8.29105C166.863 8.03315 166.814 7.6154 166.926 7.26403L166.902 7.25611ZM167.1 8.30931L167.082 8.32756C167.279 8.52571 167.544 8.60147 167.82 8.59704C168.095 8.59261 168.382 8.50818 168.625 8.38349L168.613 8.36044L168.602 8.33739C168.364 8.45918 168.085 8.54096 167.819 8.54524C167.553 8.54951 167.303 8.47647 167.119 8.29105L167.1 8.30931ZM168.613 8.36044L168.625 8.38349C168.867 8.25956 169.094 8.10233 169.322 7.95878C169.551 7.81466 169.783 7.68343 170.038 7.60752L170.031 7.58269L170.024 7.55785C169.761 7.63587 169.524 7.77027 169.294 7.91493C169.064 8.06015 168.841 8.21484 168.602 8.33739L168.613 8.36044ZM170.031 7.58269L170.038 7.60752C170.268 7.53932 170.507 7.5187 170.749 7.48338L170.745 7.45775L170.741 7.43212C170.504 7.46684 170.258 7.48824 170.024 7.55785L170.031 7.58269ZM170.745 7.45775L170.749 7.48338C171.167 7.42219 171.579 7.31741 171.976 7.17123L171.967 7.14692L171.958 7.12262C171.564 7.26755 171.156 7.37145 170.741 7.43212L170.745 7.45775ZM171.967 7.14692L171.976 7.17123C172.364 7.02817 172.784 6.80297 172.92 6.39839L172.895 6.39018L172.871 6.38196C172.744 6.76156 172.345 6.97974 171.958 7.12262L171.967 7.14692ZM172.895 6.39018L172.92 6.3984C173.072 5.94247 172.78 5.43949 172.38 5.18996L172.367 5.21194L172.353 5.23392C172.741 5.47605 173.013 5.95703 172.871 6.38196L172.895 6.39018ZM172.367 5.21194L172.38 5.18996C171.981 4.9405 171.496 4.88223 171.035 4.83017L171.032 4.85591L171.029 4.88165C171.492 4.93394 171.965 4.99167 172.353 5.23392L172.367 5.21194Z" fill="#1982FF" mask="url(#path-26-inside-3_14_322)"/>
</g>
<g opacity="0.66">
<mask id="path-28-inside-4_14_322" fill="white">
<path d="M174.913 5.33024C174.721 5.28367 174.515 5.39094 174.399 5.55162C174.284 5.71233 174.245 5.91592 174.236 6.11359C174.223 6.38828 174.277 6.69092 174.486 6.86922C174.715 7.06431 175.072 7.04628 175.333 6.89622C175.675 6.69952 175.884 6.26524 175.761 5.89048C175.638 5.51572 175.148 5.29146 174.81 5.49455"/>
</mask>
<path d="M174.913 5.33024C174.721 5.28367 174.515 5.39094 174.399 5.55162C174.284 5.71233 174.245 5.91592 174.236 6.11359C174.223 6.38828 174.277 6.69092 174.486 6.86922C174.715 7.06431 175.072 7.04628 175.333 6.89622C175.675 6.69952 175.884 6.26524 175.761 5.89048C175.638 5.51572 175.148 5.29146 174.81 5.49455" fill="white"/>
<path d="M174.399 5.55162L174.378 5.5365L174.378 5.53651L174.399 5.55162ZM174.236 6.11359L174.21 6.11242L174.21 6.11242L174.236 6.11359ZM174.486 6.86922L174.47 6.88895H174.47L174.486 6.86922ZM175.333 6.89622L175.346 6.91867L175.346 6.91867L175.333 6.89622ZM175.761 5.89048L175.786 5.88241L175.786 5.8824L175.761 5.89048ZM174.913 5.33024L174.919 5.30507C174.714 5.25533 174.498 5.36987 174.378 5.5365L174.399 5.55162L174.42 5.56674C174.532 5.412 174.728 5.312 174.907 5.35542L174.913 5.33024ZM174.399 5.55162L174.378 5.53651C174.259 5.70322 174.219 5.91277 174.21 6.11242L174.236 6.11359L174.262 6.11477C174.271 5.91906 174.309 5.72145 174.42 5.56674L174.399 5.55162ZM174.236 6.11359L174.21 6.11242C174.197 6.38947 174.251 6.70266 174.47 6.88895L174.486 6.86922L174.503 6.8495C174.303 6.67919 174.249 6.3871 174.262 6.11477L174.236 6.11359ZM174.486 6.86922L174.47 6.88895C174.71 7.0933 175.079 7.07231 175.346 6.91867L175.333 6.89622L175.32 6.87376C175.065 7.02025 174.721 7.03533 174.503 6.8495L174.486 6.86922ZM175.333 6.89622L175.346 6.91867C175.696 6.71703 175.913 6.27093 175.786 5.88241L175.761 5.89048L175.737 5.89855C175.855 6.25955 175.653 6.68202 175.32 6.87376L175.333 6.89622ZM175.761 5.89048L175.786 5.8824C175.722 5.68691 175.563 5.53202 175.377 5.45203C175.191 5.37201 174.974 5.36557 174.797 5.47235L174.81 5.49455L174.823 5.51676C174.984 5.42045 175.182 5.42459 175.356 5.49962C175.531 5.57467 175.678 5.71928 175.737 5.89855L175.761 5.89048Z" fill="#1982FF" mask="url(#path-28-inside-4_14_322)"/>
</g>
</svg>
