<svg width="19" height="20" viewBox="0 0 19 20" fill="none" xmlns="http://www.w3.org/2000/svg">
<path d="M2.02043 19.5C1.45583 19.5 0.977941 19.3044 0.586765 18.9132C0.195588 18.5221 0 18.0442 0 17.4796V2.52043C0 1.95583 0.195588 1.47794 0.586765 1.08676C0.977941 0.695588 1.45583 0.5 2.02043 0.5H9.51062V2.17647H2.02043C1.93437 2.17647 1.85557 2.21233 1.78404 2.28404C1.71233 2.35557 1.67647 2.43437 1.67647 2.52043V17.4796C1.67647 17.5656 1.71233 17.6444 1.78404 17.716C1.85557 17.7877 1.93437 17.8235 2.02043 17.8235H9.51062V19.5H2.02043ZM14.2285 14.7715L13.0678 13.5591L15.789 10.8382H6.25463V9.16177H15.789L13.0678 6.44085L14.2285 5.22848L19 10L14.2285 14.7715Z" fill="#1982FF"/>
</svg>
