<svg width="189" height="305" viewBox="0 0 189 305" fill="none" xmlns="http://www.w3.org/2000/svg">
<path d="M189 36.8893H0L94.5 247.33L189 36.8893Z" fill="#1982FF"/>
<path opacity="0.1" d="M91.9275 304.104C131.134 304.104 162.917 298.859 162.917 292.388C162.917 285.918 131.134 280.673 91.9275 280.673C52.721 280.673 20.9378 285.918 20.9378 292.388C20.9378 298.859 52.721 304.104 91.9275 304.104Z" fill="#606060"/>
<path d="M146.316 116.004L114.154 148.694L110.575 139.927L121.9 125.107C123.45 123.077 125.203 121.216 127.125 119.534L134.306 113.277L119.678 85.0184C119.678 85.0184 105.603 106.3 108.762 126.428C108.858 127.017 108.966 127.593 109.074 128.169C92.2241 131.832 79.3257 129.322 75.0382 128.23C77.284 117.553 74.3776 106.372 71.0389 98.061C67.9284 90.2787 64.4456 85.0184 64.4456 85.0184L49.8297 113.277L58.7049 121.864C59.6056 122.753 60.4703 123.69 61.251 124.675L73.3928 139.735L73.549 139.927L72.6963 142.017L72.6843 142.041L69.9821 148.694L38.1682 115.799C38.1682 115.799 47.2356 74.9542 52.0995 64.878C55.7865 57.2638 66.6914 55.042 74.1975 53.4207C76.6235 52.9043 78.6891 52.4359 80.0462 51.8835C82.8926 50.7065 83.9254 46.8754 84.2497 43.4046C84.4779 41.0867 84.3818 38.9369 84.3097 37.9041C84.2857 37.4958 84.2617 37.2556 84.2617 37.2556L86.8438 37.9041L92.056 39.2132H98.9616C98.9616 39.2132 98.6614 41.0146 98.7575 43.2725C98.8896 46.6592 99.8864 51.0548 104.09 51.8835C106.071 52.2678 109.338 52.7241 113.001 53.5528H113.013C120.171 55.1741 128.794 58.2126 132.024 64.878C136.888 74.9542 146.316 116.004 146.316 116.004Z" fill="#FEB98F"/>
<path d="M85.8109 89.1713C85.8109 89.1713 70.3964 93.8563 71.6502 99.7459L64.4515 85.0159C64.4515 85.0159 66.1365 95.5149 85.8109 89.1713Z" fill="#FFA269"/>
<path d="M113.001 53.5527C107.611 54.624 98.1834 60.9724 94.1085 63.8535C93.1657 64.52 91.8987 64.3471 91.1168 63.4968C87.3001 59.3426 74.1963 53.4206 74.1963 53.4206C76.6223 52.9042 78.6879 52.4358 80.045 51.8834C82.8914 50.7064 83.9242 46.8753 84.2485 43.4045C84.4766 41.0866 84.3806 38.9369 84.3085 37.904H86.8426L92.0548 39.2131H98.9604C98.9604 39.2131 98.6602 41.0146 98.7562 43.2724C98.8884 46.6591 99.8852 51.0547 104.089 51.8834C106.071 52.2677 109.338 52.7241 113.001 53.5527Z" fill="#FFA269"/>
<path d="M98.8379 38.0578C98.8379 42.4618 95.7694 46.0323 91.984 46.0323C88.1985 46.0323 85.13 42.4618 85.13 38.0578C85.13 33.6538 88.1985 30.0833 91.984 30.0833C95.7694 30.0833 98.8379 33.6538 98.8379 38.0578Z" fill="#FFA269"/>
<path d="M73.3881 139.73L72.6963 142.02L72.6867 142.039L45.0174 113.65C45.0174 113.65 51.8786 90.7806 55.3962 86.911C58.9151 83.0415 64.4504 85.0159 64.4504 85.0159L49.8309 113.28L58.7001 121.867C59.6069 122.753 60.4644 123.69 61.2534 124.673L73.3881 139.73Z" fill="#FFA269"/>
<path d="M110.875 139.73L111.567 142.02L111.577 142.039L139.246 113.65C139.246 113.65 132.385 90.7806 128.867 86.911C125.349 83.0415 119.683 85.0159 119.683 85.0159L134.303 113.28L125.299 121.234C124.392 122.12 123.231 123.431 122.442 124.415L110.875 139.73Z" fill="#FFA269"/>
<path d="M109.289 83.4115C109.289 83.9255 108.872 84.3422 108.358 84.3422C107.844 84.3422 107.427 83.9255 107.427 83.4115C107.427 82.8974 107.844 82.4807 108.358 82.4807C108.872 82.4807 109.289 82.8974 109.289 83.4115Z" fill="#FFA269"/>
<path d="M75.9173 83.4115C75.9173 83.9255 75.5006 84.3422 74.9865 84.3422C74.4725 84.3422 74.0558 83.9255 74.0558 83.4115C74.0558 82.8974 74.4725 82.4807 74.9865 82.4807C75.5006 82.4807 75.9173 82.8974 75.9173 83.4115Z" fill="#FFA269"/>
<path d="M109.079 128.172C92.2278 131.836 79.3245 129.322 75.0358 128.231C77.2876 117.559 74.3729 106.37 71.0402 98.0573C72.9701 100.416 74.8016 108.505 75.27 109.714C78.0286 116.741 83.349 122.861 90.2306 125.942C96.0289 128.544 102.92 128.798 108.768 126.429C108.854 127.012 108.962 127.597 109.079 128.172Z" fill="#FFA269"/>
<path d="M106.045 21.3881C106.045 34.7538 98.1197 42.7043 91.7461 42.7043C85.2092 42.7043 77.4473 33.6849 77.4473 21.3881C77.4473 12.6786 83.8485 5.61691 91.7461 5.61691C99.6437 5.61691 106.045 12.6786 106.045 21.3881Z" fill="#FFA269"/>
<path d="M106.283 20.443C106.283 33.8086 98.3575 41.7579 91.9839 41.7579C85.447 41.7579 77.6851 32.7386 77.6851 20.443C77.6851 11.7323 84.0863 4.67175 91.9839 4.67175C99.8803 4.67175 106.283 11.7323 106.283 20.443Z" fill="#FEB98F"/>
<path d="M106.045 21.3881C106.045 21.3881 108.82 19.953 108.291 22.6011C107.761 25.2493 106.438 28.5592 104.715 27.4999C102.996 26.4407 106.045 21.3881 106.045 21.3881Z" fill="#FEB98F"/>
<path d="M77.4545 21.3881C77.4545 21.3881 74.679 19.953 75.2087 22.6011C75.7383 25.2493 77.0618 28.5592 78.7828 27.4999C80.5038 26.4407 77.4545 21.3881 77.4545 21.3881Z" fill="#FEB98F"/>
<path d="M86.9313 24.0902C86.9313 24.8757 86.5458 25.511 86.0702 25.511C85.5946 25.511 85.2091 24.8745 85.2091 24.0902C85.2091 23.3048 85.5946 22.6695 86.0702 22.6695C86.5458 22.6695 86.9313 23.306 86.9313 24.0902Z" fill="black"/>
<path d="M98.9807 24.0902C98.9807 24.8757 98.5952 25.511 98.1196 25.511C97.6441 25.511 97.2585 24.8745 97.2585 24.0902C97.2585 23.3048 97.6441 22.6695 98.1196 22.6695C98.5952 22.6695 98.9807 23.306 98.9807 24.0902Z" fill="black"/>
<path d="M89.2781 32.8706C89.9386 33.1601 90.7985 33.3811 91.8818 33.3811C95.128 33.3811 96.5896 31.5363 96.5896 31.5363" stroke="black" stroke-width="0.450967" stroke-miterlimit="10" stroke-linecap="round" stroke-linejoin="round"/>
<path d="M87.724 21.5791C87.724 21.9526 87.1343 21.8421 86.2204 21.8421C85.3076 21.8421 84.4165 21.9526 84.4165 21.5791C84.4165 21.2056 85.1563 20.903 86.0702 20.903C86.9842 20.903 87.724 21.2056 87.724 21.5791Z" fill="black"/>
<path d="M99.7734 21.579C99.7734 21.9525 99.1837 21.8421 98.2698 21.8421C97.3571 21.8421 96.4659 21.9525 96.4659 21.579C96.4659 21.2055 97.2057 20.9029 98.1197 20.9029C99.0336 20.9029 99.7734 21.2055 99.7734 21.579Z" fill="black"/>
<path d="M91.1179 22.4125C91.1179 22.4125 92.0403 26.0658 91.1396 27.7856C89.2636 31.3694 92.6035 29.5799 93.2437 29.987" stroke="black" stroke-width="0.450967" stroke-miterlimit="10" stroke-linecap="round" stroke-linejoin="round"/>
<path d="M76.9753 21.7293C76.9753 21.7293 84.258 15.8889 85.2092 10.6094C85.2092 10.6094 92.0404 15.244 98.9796 10.8196C98.9796 10.8196 103.004 22.0283 106.045 21.387C106.045 21.387 112.297 -0.020402 91.9407 1.45945e-05C71.0989 -0.019201 76.9753 21.7293 76.9753 21.7293Z" fill="black"/>
<path d="M104.672 20.1057L104.528 24.6177L106.045 21.3883L104.672 20.1057Z" fill="black"/>
<path d="M78.7023 20.0192L78.8452 24.5312L77.3284 21.3018L78.7023 20.0192Z" fill="black"/>
<path d="M91.9839 173.852C91.9839 173.852 82.6908 210.011 72.8596 224.136C70.974 226.84 69.0789 228.748 67.2258 229.426C66.7322 229.609 66.2506 229.706 65.7678 229.706C65.3403 229.717 64.9127 229.641 64.496 229.501C64.4527 229.479 64.3975 229.468 64.3531 229.447C62.0292 228.552 60.6709 225.708 59.9803 221.7C57.1304 205.205 65.6789 169.089 65.6789 169.089L68.3199 169.563L72.6494 170.35L74.8412 170.749L91.9839 173.852Z" fill="#FEB98F"/>
<path d="M72.7611 239.943C71.4677 247.96 66.701 255.652 63.5004 263.044C61.1549 268.473 58.8971 273.948 56.6945 279.431C56.6945 279.431 56.6945 279.453 56.6837 279.474C56.4531 280.023 56.2345 280.562 56.0255 281.113C56.2561 282.157 56.4855 283.3 56.5624 284.281C56.9347 289.409 54.4474 288.052 51.7729 289.118C49.1091 290.185 43.772 292.695 43.772 292.695C43.4981 292.824 42.5554 293.191 41.7771 293.352C41.5249 293.395 41.2835 293.427 41.0974 293.427C40.4837 293.417 40.1762 293.007 40.1762 293.007C38.9164 293.222 38.4889 292.695 38.4889 292.695C38.0061 292.792 37.217 292.038 37.217 292.038C36.954 292.016 36.4832 291.726 36.4832 291.726C36.3631 291.457 36.5601 290.928 37.1077 290.562C37.6554 290.185 40.1102 288.137 42.1278 286.618C44.3748 284.915 49.1091 281.176 49.1091 281.176C49.5583 274.819 49.5583 267.923 50.1828 261.588C50.6535 256.87 51.2564 252.171 51.8377 247.464C52.5943 241.311 54.9062 235.116 57.1857 229.33C58.1825 226.809 59.1036 224.267 59.9803 221.701C60.6925 219.665 61.3723 217.607 62.052 215.549L70.9296 220.225L71.0173 220.269L72.1018 220.85L72.4309 221.023C72.5846 222.046 72.7263 223.091 72.8584 224.137C73.4625 229.373 73.5934 234.825 72.7611 239.943Z" fill="#FEB98F"/>
<path d="M40.1822 293.009C40.1822 293.009 39.4136 291.761 41.1995 291.259" stroke="#FFA269" stroke-width="0.271661" stroke-miterlimit="10" stroke-linecap="round" stroke-linejoin="round"/>
<path d="M38.5525 292.752C38.5525 292.752 37.7647 291.746 39.0918 291.372" stroke="#FFA269" stroke-width="0.201884" stroke-miterlimit="10" stroke-linecap="round" stroke-linejoin="round"/>
<path d="M37.4884 292.241C37.4884 292.241 36.6994 291.234 38.0277 290.861" stroke="#FFA269" stroke-width="0.201884" stroke-miterlimit="10" stroke-linecap="round" stroke-linejoin="round"/>
<path d="M36.9216 291.95C36.9216 291.95 36.1338 290.944 37.4608 290.571" stroke="#FFA269" stroke-width="0.201884" stroke-miterlimit="10" stroke-linecap="round" stroke-linejoin="round"/>
<path opacity="0.57" d="M72.8596 224.137C73.4625 229.373 73.5934 234.826 72.7611 239.943C71.4677 247.96 66.701 255.652 63.5004 263.044C61.1549 268.473 58.8971 273.947 56.6945 279.431C56.6945 279.431 56.6945 279.453 56.6837 279.474C56.4531 280.023 56.2345 280.562 56.0255 281.112C56.2561 282.157 56.4855 283.299 56.5624 284.281C56.9347 289.409 54.4475 288.052 51.7729 289.118C49.1091 290.185 43.772 292.695 43.772 292.695C43.4982 292.824 42.5554 293.191 41.7772 293.352C45.8653 289.689 52.8249 288.816 54.6324 283.698C55.1476 282.233 55.1152 280.627 55.3782 279.097C55.8274 276.36 57.1869 273.861 58.4143 271.362C64.1021 259.769 67.2367 246.98 67.5441 234.104C67.5657 233.187 67.5549 232.208 67.0397 231.432C66.5689 230.71 65.7571 230.29 65.0016 229.858C64.7819 229.729 64.5633 229.589 64.3555 229.449C63.2482 228.695 62.2838 227.682 62.1421 226.4C61.9884 224.87 63.8187 223.275 65.1121 224.137C65.4076 224.342 65.6273 224.633 65.912 224.848C66.964 225.645 68.5865 225.182 69.4633 224.202C70.34 223.222 70.6582 221.885 70.9429 220.604C70.9645 220.496 70.9981 220.378 71.0197 220.27C73.1899 210.788 75.7324 201.306 80.2805 192.676C82.6043 188.27 85.5299 183.712 85.0363 178.766C84.9378 177.722 84.6304 176.612 83.8197 175.923C83.2937 175.47 82.6031 175.244 81.9342 175.028C77.9446 173.756 70.8108 172.83 67.7303 170.212C67.884 169.975 68.0809 169.759 68.3223 169.566L72.6519 170.352L74.8436 170.751L91.984 173.854C91.984 173.852 82.6908 210.011 72.8596 224.137Z" fill="#FFA269"/>
<path d="M94.5 173.852C94.5 173.852 103.794 210.011 113.624 224.136C115.51 226.84 117.405 228.748 119.257 229.426C119.751 229.609 120.232 229.706 120.715 229.706C121.142 229.717 121.57 229.641 121.987 229.501C122.03 229.479 122.085 229.468 122.13 229.447C124.454 228.552 125.812 225.708 126.502 221.7C129.352 205.205 120.804 169.089 120.804 169.089L118.163 169.563L113.833 170.35L111.642 170.749L94.5 173.852Z" fill="#FEB98F"/>
<path d="M113.723 239.943C115.016 247.96 119.783 255.652 122.984 263.044C125.329 268.473 127.587 273.948 129.79 279.431C129.79 279.431 129.79 279.453 129.8 279.474C130.031 280.023 130.25 280.562 130.458 281.113C130.228 282.157 129.998 283.3 129.922 284.281C129.549 289.409 132.037 288.052 134.711 289.118C137.375 290.185 142.712 292.695 142.712 292.695C142.986 292.824 143.929 293.191 144.707 293.352C144.959 293.395 145.2 293.427 145.387 293.427C146 293.417 146.308 293.007 146.308 293.007C147.568 293.222 147.995 292.695 147.995 292.695C148.478 292.792 149.267 292.038 149.267 292.038C149.53 292.016 150.001 291.726 150.001 291.726C150.121 291.457 149.924 290.928 149.376 290.562C148.829 290.185 146.374 288.137 144.356 286.618C142.109 284.915 137.375 281.176 137.375 281.176C136.926 274.819 136.926 267.923 136.301 261.588C135.83 256.87 135.228 252.171 134.646 247.464C133.89 241.311 131.578 235.116 129.298 229.33C128.302 226.809 127.38 224.267 126.504 221.701C125.791 219.665 125.112 217.607 124.432 215.549L115.554 220.225L115.467 220.269L114.381 220.85L114.052 221.023C113.898 222.046 113.756 223.091 113.624 224.137C113.022 229.373 112.891 234.825 113.723 239.943Z" fill="#FEB98F"/>
<path d="M146.302 293.009C146.302 293.009 147.07 291.761 145.284 291.259" stroke="#FFA269" stroke-width="0.271661" stroke-miterlimit="10" stroke-linecap="round" stroke-linejoin="round"/>
<path d="M147.933 292.752C147.933 292.752 148.721 291.746 147.393 291.372" stroke="#FFA269" stroke-width="0.201884" stroke-miterlimit="10" stroke-linecap="round" stroke-linejoin="round"/>
<path d="M148.996 292.241C148.996 292.241 149.783 291.234 148.456 290.861" stroke="#FFA269" stroke-width="0.201884" stroke-miterlimit="10" stroke-linecap="round" stroke-linejoin="round"/>
<path d="M149.562 291.95C149.562 291.95 150.35 290.944 149.023 290.571" stroke="#FFA269" stroke-width="0.201884" stroke-miterlimit="10" stroke-linecap="round" stroke-linejoin="round"/>
<path opacity="0.57" d="M113.624 224.137C113.021 229.373 112.891 234.826 113.723 239.943C115.016 247.96 119.783 255.652 122.984 263.044C125.329 268.473 127.587 273.947 129.789 279.431C129.789 279.431 129.789 279.453 129.8 279.474C130.031 280.023 130.249 280.562 130.458 281.112C130.228 282.157 129.998 283.299 129.922 284.281C129.549 289.409 132.037 288.052 134.711 289.118C137.375 290.185 142.712 292.695 142.712 292.695C142.986 292.824 143.929 293.191 144.707 293.352C140.619 289.689 133.659 288.816 131.852 283.698C131.336 282.233 131.369 280.627 131.107 279.097C130.658 276.36 129.298 273.861 128.071 271.362C122.383 259.769 119.249 246.98 118.941 234.104C118.919 233.187 118.93 232.208 119.445 231.432C119.916 230.71 120.728 230.29 121.484 229.858C121.703 229.729 121.922 229.589 122.13 229.449C123.237 228.695 124.201 227.682 124.343 226.4C124.497 224.87 122.667 223.275 121.373 224.137C121.078 224.342 120.858 224.633 120.573 224.848C119.521 225.645 117.899 225.182 117.022 224.202C116.145 223.222 115.827 221.885 115.542 220.604C115.521 220.496 115.487 220.378 115.465 220.27C113.295 210.788 110.753 201.306 106.205 192.676C103.881 188.27 100.955 183.712 101.449 178.766C101.547 177.722 101.855 176.612 102.665 175.923C103.191 175.47 103.882 175.244 104.551 175.028C108.541 173.756 115.674 172.83 118.755 170.212C118.601 169.975 118.404 169.759 118.163 169.566L113.833 170.352L111.642 170.751L94.5012 173.854C94.5 173.852 103.794 210.011 113.624 224.137Z" fill="#FFA269"/>
<path d="M75.037 128.227C74.8076 129.316 74.5398 130.401 74.1975 131.475V134.894L83.1748 139.635L92.0656 140.143L100.446 139.127L106.626 135.232L110.075 131.91L109.919 131.475H109.934C109.585 130.382 109.313 129.277 109.082 128.168C92.223 131.837 79.3281 129.319 75.037 128.227Z" fill="#E0E0E0"/>
<path d="M121.661 170.528L104.508 172.711H104.498L94.0496 174.037L93.9331 173.355L93.1345 168.424L93.066 168.024L92.9879 168.481L92.062 174.115L82.423 172.995L72.5894 171.855H72.5798L63.6421 170.813L63.7682 170.344L64.9476 165.968V165.958L66.546 160.013L67.8131 155.286L69.4212 149.322L70.6005 144.946L72.199 138.991L74.129 131.808C76.8192 132.793 80.1327 133.553 83.8461 134.021C86.5555 134.371 89.4799 134.556 92.5304 134.556C93.4071 134.556 94.2358 134.537 95.0452 134.507C101.361 134.273 105.786 133.152 109.937 131.476L110.084 131.963L111.488 136.632L112.599 140.345L114.003 145.023L115.035 148.453L116.439 153.131L117.863 157.858L119.267 162.535L120.299 165.967L121.661 170.528Z" fill="white"/>
</svg>
