<svg width="52" height="87" viewBox="0 0 52 87" fill="none" xmlns="http://www.w3.org/2000/svg">
<path d="M49.4128 27.5181C49.2555 28.2644 48.6988 28.749 48.1376 29.2615C46.9231 30.371 45.4822 31.2024 44.0135 31.9447C33.7364 37.134 21.1348 38.1186 10.6393 33.3851C8.83179 32.5701 7.08046 31.5775 5.59532 30.2581C5.00624 29.7337 3.51712 28.5311 3.36388 27.7077C3.18228 26.7355 5.2321 26.9614 5.89781 26.7997C5.97443 26.7793 6.05105 26.7634 6.12817 26.7475C7.2944 26.4813 8.48451 26.3156 9.67512 26.2026C17.6685 25.4479 25.8276 26.9853 33.72 25.4966C37.5495 24.7742 41.3422 23.3378 45.224 23.6931C46.2733 23.7856 47.3425 24.0279 48.1898 24.6533C48.2545 24.7016 48.3147 24.7503 48.3754 24.8066C49.1222 25.4643 49.6143 26.5659 49.4128 27.5181Z" fill="#3291D9"/>
<path opacity="0.5" d="M49.4128 27.5182C49.2555 28.2645 48.6988 28.7491 48.1376 29.2615C46.9231 30.3711 45.4822 31.2024 44.0135 31.9447C33.7364 37.134 21.1348 38.1187 10.6393 33.3851C8.83179 32.5702 7.08046 31.5776 5.59532 30.2581C5.00624 29.7337 3.51712 28.5312 3.36388 27.7077C3.18228 26.7356 5.2321 26.9614 5.89781 26.7997C5.97443 26.7793 6.05105 26.7634 6.12817 26.7475C6.50331 26.8122 6.87447 26.8724 7.22573 26.9127C9.04572 27.1266 10.8612 27.3321 12.6812 27.5261C14.7271 27.7441 16.7729 27.95 18.8183 28.1272C28.7327 28.9949 39.1551 29.2168 48.1331 24.9235C48.2137 24.8872 48.2948 24.8469 48.3754 24.8066C49.1222 25.4644 49.6143 26.5659 49.4128 27.5182Z" fill="#3291D9"/>
<path d="M49.4448 27.2764L48.6139 39.0222L46.0759 74.8094C45.9346 76.7906 44.6027 78.4812 42.7186 79.1027C28.6363 83.7631 16.3736 81.1281 9.99417 78.9778C8.1299 78.3484 6.83032 76.6618 6.6935 74.7005L3.671 32.0174L3.3645 27.7077C4.49042 27.8371 5.61982 28.1316 6.7338 28.2486C8.83191 28.4625 10.9464 28.5635 13.0445 28.7327C16.995 29.0516 20.929 29.5436 24.8874 29.7133C32.1584 30.0198 39.5269 29.681 46.6327 28.0102C47.5765 27.7888 48.5129 27.5425 49.4448 27.2764Z" fill="#68CEFF"/>
<path opacity="0.5" d="M48.6138 39.0222L46.0758 74.8095C45.9345 76.7906 44.6026 78.4813 42.7185 79.1027C28.6362 83.7631 16.3735 81.1282 9.99407 78.9778C8.1298 78.3484 6.83022 76.6618 6.6934 74.7005L3.6709 32.0174C4.97046 37.0774 6.00333 42.2059 6.76158 47.3748C7.37504 51.5472 7.81486 55.7598 8.90447 59.8311C9.99805 63.9025 11.7976 67.8853 14.7674 70.8789C17.7332 73.8731 21.9941 75.7652 26.1744 75.2125C29.4064 74.7846 32.3319 72.9526 34.5877 70.5963C36.8436 68.24 38.4979 65.3792 39.9865 62.4775C43.8041 55.0498 46.7047 47.1529 48.6138 39.0222Z" fill="#68CEFF"/>
<path opacity="0.5" d="M30.1248 31.2442C24.8918 31.2756 19.6696 30.7825 14.4724 30.169C12.6807 29.9576 10.8588 29.7327 9.08307 30.0506C8.21985 30.2054 7.3377 30.5153 6.76205 31.1766C6.166 31.8622 5.98939 32.8388 6.11228 33.7389C6.23567 34.6389 6.62723 35.4792 7.0581 36.2793C8.81489 39.5391 11.3976 42.4482 14.7331 44.0558C17.3645 45.324 20.3274 45.73 23.2449 45.8748C25.7734 46.0006 28.3521 45.9369 30.7672 45.1762C33.7439 44.2389 36.3017 42.297 38.5824 40.167C40.8631 38.0371 42.9354 35.6827 45.327 33.6782C45.9818 33.1294 46.6738 32.5921 47.1196 31.8632C47.4619 31.3039 47.9734 29.3486 46.8241 29.3496C46.2022 29.3501 45.4867 29.6302 44.8743 29.7511C44.2115 29.8825 43.5474 30.0049 42.8817 30.1193C40.1671 30.5845 37.4287 30.9064 34.6803 31.0835C33.1643 31.1815 31.6448 31.2353 30.1248 31.2442Z" fill="#9CF1FF"/>
<path opacity="0.5" d="M15.9263 31.2761C14.3675 31.0999 12.7475 30.9218 11.2639 31.4313C10.8793 31.5636 10.4564 31.8129 10.426 32.2189C10.3947 32.6388 10.7982 32.9483 11.1629 33.1592C14.0546 34.8339 17.3826 35.6733 20.7171 35.8877C24.052 36.1022 27.4019 35.7101 30.6772 35.0459C32.4226 34.6916 34.1829 34.2513 35.7531 33.3841C36.1452 33.1677 37.0183 32.6637 36.3043 32.2821C35.7192 31.9691 34.8963 32.1035 34.2699 32.1423C30.3369 32.3865 26.39 32.2418 22.4654 31.9263C20.2817 31.7507 18.1025 31.5218 15.9263 31.2761Z" fill="#9CF1FF"/>
<path opacity="0.5" d="M38.7905 31.9084C38.5765 31.9995 38.3611 32.1069 38.2113 32.2851C38.0616 32.4627 37.9929 32.7274 38.1029 32.9323C38.2427 33.1931 38.586 33.2498 38.8815 33.2647C39.3069 33.2861 39.7333 33.2841 40.1587 33.2582C40.8781 33.214 41.6001 33.097 42.2792 32.8493C42.6762 32.7045 43.7245 32.3318 43.8195 31.8418C43.9793 31.0218 41.7687 31.2208 41.3617 31.2716C40.4841 31.3805 39.6074 31.5596 38.7905 31.9084Z" fill="#9CF1FF"/>
<path opacity="0.19" d="M26.2484 1C12.307 1 1.00098 3.49364 1.00098 6.56841C1.00098 6.62065 1.00497 6.67737 1.01343 6.72961L5.67384 77.2503L5.94001 81.253C5.94001 81.253 6.19426 83.7387 7.38834 84.5094C7.46496 84.5616 7.54556 84.6064 7.63064 84.6387C8.38093 84.9412 18.4689 86.1398 26.2484 85.9865C34.0279 86.1398 44.1199 84.9412 44.8662 84.6387C45.0682 84.5581 45.2498 84.4287 45.407 84.2675C46.3474 83.3153 46.5608 81.2535 46.5608 81.2535L46.8031 77.5613L51.4839 6.72961C51.4919 6.67737 51.4958 6.62065 51.4958 6.56841C51.4953 3.49364 40.1933 1 26.2484 1Z" fill="#D7FFFF"/>
<path opacity="0.33" d="M51.4511 7.24209L46.8594 76.7219L46.8027 77.5613L46.5604 81.2535C46.5604 81.2535 46.5604 81.2615 46.5564 81.2779C46.5564 81.2858 46.5564 81.2983 46.5524 81.3102C46.5524 81.3261 46.5524 81.3346 46.5484 81.3545C46.5444 81.3709 46.5445 81.3908 46.5405 81.4152C46.5365 81.4311 46.5365 81.4515 46.5325 81.4714C46.5285 81.4998 46.5245 81.5281 46.5166 81.56C46.5126 81.5804 46.5086 81.6043 46.5041 81.6286C46.5001 81.665 46.4922 81.7013 46.4842 81.7416C46.4803 81.7659 46.4763 81.7898 46.4723 81.8182C46.4638 81.8625 46.4564 81.9028 46.4439 81.9515C46.44 81.9679 46.436 81.9878 46.432 82.0078C46.4116 82.1087 46.3837 82.2137 46.3554 82.3227C46.3514 82.355 46.3434 82.3834 46.335 82.4113C46.323 82.4595 46.3066 82.5083 46.2907 82.5605C46.2867 82.5764 46.2827 82.5968 46.2743 82.6128C46.2703 82.6327 46.2663 82.6531 46.2584 82.6735C46.2419 82.7217 46.226 82.7705 46.2101 82.8227C46.1937 82.863 46.1817 82.9033 46.1658 82.9476C46.1494 82.9959 46.1295 83.0401 46.1136 83.0889C46.0932 83.1332 46.0772 83.1775 46.0568 83.2262C46.0404 83.2705 46.0205 83.3148 46.0001 83.3596L45.9275 83.5048C45.9071 83.5451 45.8912 83.5815 45.8708 83.6218C45.8265 83.7063 45.7778 83.7869 45.7255 83.8641C45.7175 83.88 45.7051 83.8924 45.6971 83.9083C45.6529 83.973 45.6041 84.0377 45.5598 84.0939C45.5399 84.1183 45.5195 84.1422 45.4996 84.1626C45.4673 84.1989 45.4389 84.2352 45.4066 84.2676V84.2596C45.2488 84.4208 45.0717 84.5581 44.8658 84.6387C44.1194 84.9412 34.0275 86.1398 26.248 85.9865C18.468 86.1398 8.38047 84.9412 7.63018 84.6387C7.39584 84.5417 7.19436 84.3805 7.01674 84.183C7.00479 84.171 6.98838 84.1546 6.97644 84.1427C6.93216 84.0904 6.89184 84.0297 6.84756 83.973C6.83164 83.9486 6.81523 83.9287 6.80328 83.9083C6.76298 83.8521 6.72667 83.7914 6.69035 83.7307C6.67841 83.7024 6.66199 83.6785 6.64607 83.6541C6.61373 83.5934 6.58139 83.5292 6.54905 83.4685C6.53711 83.4402 6.52517 83.4118 6.50875 83.3839C6.48039 83.3193 6.45204 83.2551 6.42816 83.1904C6.41572 83.162 6.40378 83.1337 6.39184 83.1058C6.36746 83.0411 6.34358 82.9769 6.3192 82.9123C6.31124 82.8799 6.2993 82.8516 6.29084 82.8237C6.26646 82.759 6.24606 82.6948 6.23013 82.6341C6.21819 82.6018 6.21023 82.5734 6.20177 82.5456C6.19381 82.5132 6.18584 82.4849 6.17739 82.457V82.4531C6.16545 82.4207 6.15748 82.3884 6.153 82.36C6.14504 82.3356 6.13708 82.3078 6.12862 82.2794C6.11668 82.2187 6.10026 82.1625 6.08832 82.1058C6.08434 82.0814 6.0759 82.0575 6.07192 82.0331C6.05948 81.9769 6.04754 81.9242 6.03958 81.8719C6.03162 81.8476 6.02712 81.8277 6.02364 81.8073C6.01568 81.759 6.00724 81.7102 5.99928 81.666C5.9953 81.646 5.99133 81.6296 5.99133 81.6092C5.98337 81.5689 5.97539 81.5286 5.97141 81.4963C5.96743 81.4759 5.96743 81.4639 5.96345 81.448C5.95947 81.4197 5.95548 81.3873 5.951 81.3634C5.951 81.3475 5.951 81.3391 5.94702 81.3231C5.94702 81.3112 5.94304 81.2948 5.94304 81.2828C5.93906 81.2629 5.93907 81.2545 5.93907 81.2545L5.6729 77.2518L5.62461 76.5095L1.02441 6.92068C1.09705 7.15453 1.206 7.37642 1.35924 7.57842C1.37566 7.59434 1.3916 7.61475 1.40753 7.63067C1.41151 7.63465 1.41548 7.63864 1.41946 7.64262C1.54882 7.77994 1.68215 7.91278 1.81499 8.0501C1.81499 8.05408 1.81897 8.05408 1.82295 8.05806C1.82693 8.06204 1.83091 8.06203 1.83091 8.06601C1.83887 8.06999 1.89959 8.10632 1.97621 8.15458L6.69333 74.7009C6.83064 76.6617 8.12973 78.3489 9.99399 78.9783C16.3734 81.1291 28.6362 83.7641 42.7184 79.1031C44.6026 78.4817 45.9344 76.7911 46.0752 74.8099L50.8287 7.72271C51.0143 7.61773 51.1919 7.49683 51.3412 7.33911C51.3785 7.30677 51.4148 7.27443 51.4511 7.24209Z" fill="#A7FFFF"/>
<path opacity="0.33" d="M23.1534 83.7954C22.4837 84.2392 21.6404 84.2999 20.8414 84.3322C17.6253 84.4611 14.4013 84.3566 11.2016 84.0258C9.74882 83.8725 8.26018 83.6626 6.97306 82.9685C6.69444 82.8192 6.42828 82.6456 6.17802 82.456V82.4521C6.16608 82.4197 6.15811 82.3874 6.15363 82.359C6.14567 82.3346 6.13771 82.3068 6.12925 82.2784C6.11731 82.2177 6.10089 82.1615 6.08895 82.1048C6.08497 82.0804 6.0765 82.0565 6.07252 82.0321C6.06008 81.9759 6.04814 81.9232 6.04018 81.8709C6.03222 81.8465 6.02775 81.8266 6.02427 81.8062C6.01631 81.758 6.00784 81.7092 5.99988 81.6649C5.9959 81.645 5.99193 81.6286 5.99193 81.6082C5.98397 81.5679 5.97602 81.5276 5.97204 81.4953C5.96806 81.4749 5.96803 81.463 5.96405 81.447C5.96007 81.4187 5.95611 81.3863 5.95163 81.3624C5.95163 81.3465 5.95163 81.3381 5.94765 81.3221C5.94765 81.3102 5.94367 81.2938 5.94367 81.2819C5.93969 81.262 5.9397 81.2535 5.9397 81.2535L5.6735 77.2508L5.62524 76.5085C5.79888 76.7105 5.98047 76.908 6.17401 77.0976C7.89697 78.8086 10.1165 79.9664 12.4002 80.7455C15.6645 81.859 19.1229 82.2869 22.4678 83.1382C22.8106 83.2267 23.234 83.4526 23.1534 83.7954Z" fill="#A7FFFF"/>
<path opacity="0.33" d="M46.8595 76.722L46.8027 77.5613L46.5604 81.2535C46.5604 81.2535 46.5604 81.2615 46.5565 81.2779C46.5565 81.2859 46.5565 81.2983 46.5525 81.3102C46.5525 81.3262 46.5525 81.3346 46.5485 81.3545C46.5445 81.371 46.5445 81.3909 46.5406 81.4152C46.5366 81.4312 46.5365 81.4516 46.5326 81.4715C46.5286 81.4998 46.5246 81.5282 46.5167 81.56C46.5127 81.5804 46.5087 81.6043 46.5042 81.6287C46.5002 81.665 46.4923 81.7013 46.4843 81.7416C46.4803 81.766 46.4764 81.7899 46.4724 81.8182C46.4639 81.8625 46.4565 81.9028 46.444 81.9516C46.44 81.968 46.4361 81.9879 46.4321 82.0078C46.4117 82.1088 46.3838 82.2138 46.3555 82.3227C46.3515 82.3551 46.3435 82.3834 46.3351 82.4113C46.3231 82.4596 46.3067 82.5083 46.2908 82.5606C46.2868 82.5765 46.2828 82.5969 46.2744 82.6128C46.0928 82.7417 45.8992 82.8631 45.7017 82.968C44.4146 83.6621 42.9254 83.8721 41.4731 84.0253C38.273 84.3562 35.0494 84.4612 31.8334 84.3318C31.0343 84.2995 30.191 84.2388 29.5213 83.795C29.4368 83.4521 29.8642 83.2263 30.2075 83.1372C33.5524 82.2859 37.0107 81.858 40.2746 80.7446C42.5543 79.9659 44.7738 78.8076 46.5007 77.0966C46.6211 76.9762 46.7425 76.8513 46.8595 76.722Z" fill="#A7FFFF"/>
<path d="M51.4954 6.56841C51.4954 6.62065 51.4914 6.67737 51.4835 6.72961C51.0999 9.73174 39.9511 12.1408 26.248 12.1408C12.5488 12.1408 1.39605 9.73174 1.01245 6.72961C1.00449 6.67737 1 6.62065 1 6.56841C1 3.49364 12.3065 1 26.2474 1C40.1934 1 51.4954 3.49364 51.4954 6.56841Z" stroke="#1982FF" stroke-width="0.403501" stroke-miterlimit="10"/>
<path d="M26.2484 1C12.307 1 1.00098 3.49364 1.00098 6.56841C1.00098 6.62065 1.00497 6.67737 1.01343 6.72961L5.67384 77.2503L5.94001 81.253C5.94001 81.253 6.19426 83.7387 7.38834 84.5094C7.46496 84.5616 7.54556 84.6064 7.63064 84.6387C8.38093 84.9412 18.4689 86.1398 26.2484 85.9865C34.0279 86.1398 44.1199 84.9412 44.8662 84.6387C45.0682 84.5581 45.2498 84.4287 45.407 84.2675C46.3474 83.3153 46.5608 81.2535 46.5608 81.2535L46.8031 77.5613L51.4839 6.72961C51.4919 6.67737 51.4958 6.62065 51.4958 6.56841C51.4954 3.49364 40.1933 1 26.2484 1Z" stroke="#1982FF" stroke-width="0.403501" stroke-miterlimit="10"/>
<path opacity="0.19" d="M49.0704 8.95309L45.2851 77.1418C44.6881 78.0459 43.7925 78.7479 42.7188 79.1031C40.8506 79.7206 39.0107 80.2126 37.2151 80.5922L40.4232 11.1811C47.7066 10.9462 49.0704 8.95309 49.0704 8.95309Z" fill="#D7FFFF"/>
<path opacity="0.19" d="M15.2326 80.4301C13.8569 80.1236 12.6016 79.7882 11.4802 79.4494C10.9553 79.2922 10.4592 79.1345 9.99504 78.9772C9.79354 78.9086 9.59948 78.828 9.4139 78.7349L4.34204 9.33969L6.97299 9.98102L11.5449 11.0985L15.2326 80.4301Z" fill="#D7FFFF"/>
<path opacity="0.19" d="M11.4802 79.4499C10.9553 79.2926 10.4592 79.1349 9.99504 78.9777C9.79354 78.909 9.59948 78.8284 9.4139 78.7354L4.34204 9.34015L6.97299 9.98147C7.21877 12.6045 10.3906 61.9615 11.4802 79.4499Z" fill="#D7FFFF"/>
</svg>
