<svg width="28" height="28" viewBox="0 0 28 28" fill="none" xmlns="http://www.w3.org/2000/svg">
<path d="M14 12.6975C12.35 12.6975 10.9375 12.0758 9.7625 10.8325C8.5875 9.58922 8 8.09463 8 6.34873C8 4.60283 8.5875 3.10823 9.7625 1.86494C10.9375 0.621646 12.35 0 14 0C15.65 0 17.0625 0.621646 18.2375 1.86494C19.4125 3.10823 20 4.60283 20 6.34873C20 8.09463 19.4125 9.58922 18.2375 10.8325C17.0625 12.0758 15.65 12.6975 14 12.6975ZM0 28V24.5161C0 23.6425 0.240333 22.8251 0.721 22.0639C1.202 21.3032 1.84883 20.7124 2.6615 20.2916C4.54883 19.334 6.43733 18.6157 8.327 18.1367C10.2167 17.6581 12.1077 17.4188 14 17.4188C15.8923 17.4188 17.7833 17.6581 19.673 18.1367C21.5627 18.6157 23.4512 19.334 25.3385 20.2916C26.1512 20.7124 26.798 21.3032 27.279 22.0639C27.7597 22.8251 28 23.6425 28 24.5161V28H0ZM2 25.8838H26V24.5161C26 24.0467 25.857 23.6058 25.571 23.1935C25.2853 22.7812 24.8898 22.4325 24.3845 22.1475C22.7385 21.3039 21.0413 20.6575 19.293 20.2085C17.5447 19.7595 15.7803 19.535 14 19.535C12.2197 19.535 10.4553 19.7595 8.707 20.2085C6.95867 20.6575 5.2615 21.3039 3.6155 22.1475C3.11017 22.4325 2.71467 22.7812 2.429 23.1935C2.143 23.6058 2 24.0467 2 24.5161V25.8838ZM14 10.5812C15.1 10.5812 16.0417 10.1668 16.825 9.33792C17.6083 8.50906 18 7.51266 18 6.34873C18 5.18479 17.6083 4.1884 16.825 3.35953C16.0417 2.53067 15.1 2.11624 14 2.11624C12.9 2.11624 11.9583 2.53067 11.175 3.35953C10.3917 4.1884 10 5.18479 10 6.34873C10 7.51266 10.3917 8.50906 11.175 9.33792C11.9583 10.1668 12.9 10.5812 14 10.5812Z" fill="#1982FF"/>
</svg>
