<svg width="60" height="60" viewBox="0 0 60 60" fill="none" xmlns="http://www.w3.org/2000/svg">
<path d="M30.1289 59.2375C46.2763 59.2375 59.3664 46.1474 59.3664 30C59.3664 13.8526 46.2763 0.762478 30.1289 0.762478C13.9814 0.762478 0.891357 13.8526 0.891357 30C0.891357 46.1474 13.9814 59.2375 30.1289 59.2375Z" fill="#EBF1F7"/>
<path d="M48.4351 52.6943V52.695C47.7419 53.2585 47.0231 53.7909 46.2793 54.29C41.6435 57.4036 36.0656 59.2246 30.0635 59.2377H29.9998C23.9734 59.2377 18.3727 57.4147 13.7202 54.29C12.9764 53.7909 12.2576 53.2585 11.5645 52.695V52.6943C12.0691 50.655 12.7754 48.8805 13.7313 47.9247C16.5129 45.1423 19.768 44.0603 23.6144 43.4912H36.3852C40.2301 44.0603 43.4866 45.1423 46.2682 47.9247C46.7257 48.3822 47.1264 49.0275 47.4743 49.7997C47.8542 50.6405 48.1724 51.631 48.4351 52.6943Z" fill="#1982FF"/>
<path d="M36.3853 43.4912C36.3853 43.4912 34.5768 45.8438 29.9999 47.8706C25.423 45.8438 23.6145 43.4912 23.6145 43.4912C24.8858 42.6809 25.8735 41.4616 26.4045 40.0788L33.5939 40.0753C34.1249 41.4595 35.1133 42.6802 36.3853 43.4912Z" fill="#EFA18F"/>
<path d="M34.1269 41.167C31.5825 42.1739 28.5884 41.9436 26.1306 40.6985C26.2318 40.4961 26.3233 40.2895 26.4044 40.0788L33.5939 40.0753C33.7387 40.4531 33.9176 40.8191 34.1269 41.167Z" fill="#E59689"/>
<path d="M18.2654 24.527C18.0616 23.5524 17.9175 22.5661 17.8641 21.5672C17.7019 18.5291 18.4872 15.3045 20.6326 13.1467C23.3075 10.4545 27.4408 9.94498 31.2345 9.90062C32.5958 9.88468 34.0133 9.92211 35.2271 10.539C36.4262 11.1497 37.3578 12.4917 37.0799 13.8031C38.2978 13.5342 39.6162 14.183 40.396 15.1756C41.2194 16.2264 41.5424 17.5843 41.6977 18.9103C41.914 20.7521 41.8454 22.6243 41.505 24.4459L40.6574 25.6162H19.2833L18.2654 24.527Z" fill="#4F3535"/>
<path d="M42.7998 27.7419C42.7028 28.8503 42.6002 29.9836 42.1392 30.9963C41.853 31.6236 41.3775 32.2287 40.7065 32.3902C40.2684 32.4949 39.7645 32.3182 39.4796 31.9917C38.6097 35.0457 36.6134 38.384 33.594 40.0753C33.594 40.0753 32.2222 40.8378 29.9999 40.8378C27.7776 40.8378 26.4045 40.0788 26.4045 40.0788C23.3837 38.3902 21.3853 35.0527 20.514 31.9993C20.2284 32.3216 19.7273 32.4942 19.2934 32.3902C18.6224 32.2287 18.1469 31.6236 17.8606 30.9963C17.3996 29.9836 17.2971 28.8503 17.2 27.7419C17.1432 27.0924 17.0877 26.4249 17.2638 25.7969C17.4135 25.2618 17.7698 24.753 18.2654 24.527C18.2654 24.527 19.1603 24.0522 20.3477 24.527C20.3477 24.527 20.3886 21.7364 21.8934 20.1088C21.8934 20.1088 30.154 22.9019 37.2937 20.0357C37.2937 20.0357 38.9888 21.4314 39.3985 24.527C39.3985 24.527 40.1824 24.0127 41.505 24.4459C42.1205 24.6033 42.5635 25.1821 42.7361 25.7969C42.9121 26.4249 42.8567 27.0924 42.7998 27.7419Z" fill="#F7AD97"/>
<path d="M29.9999 60C25.9503 60 22.0214 59.2067 18.3224 57.6421C14.7499 56.1311 11.5417 53.968 8.78678 51.2131C6.03189 48.4582 3.86888 45.25 2.35786 41.6776C0.793323 37.9786 0 34.0497 0 30C0 25.9503 0.793323 22.0214 2.35786 18.3224C3.86888 14.7499 6.03189 11.5417 8.78678 8.78678C11.5417 6.03189 14.7499 3.86888 18.3224 2.35786C22.0214 0.793324 25.9503 0 29.9999 0C34.0496 0 37.9785 0.793324 41.6775 2.35786C45.25 3.86888 48.4582 6.03189 51.2131 8.78678C53.968 11.5417 56.1311 14.7499 57.6421 18.3224C59.2067 22.0214 60 25.9503 60 30C60 34.0497 59.2067 37.9786 57.6421 41.6776C56.1311 45.25 53.968 48.4582 51.2131 51.2131C48.4582 53.968 45.25 56.1311 41.6775 57.6421C37.9785 59.2067 34.0496 60 29.9999 60ZM29.9999 1.52495C26.1555 1.52495 22.4265 2.27773 18.9164 3.76234C15.5258 5.19649 12.4804 7.24977 9.86506 9.86507C7.2497 12.4804 5.19642 15.5257 3.76234 18.9164C2.27773 22.4265 1.52495 26.1556 1.52495 30C1.52495 33.8444 2.27773 37.5735 3.76234 41.0835C5.19649 44.4742 7.24977 47.5195 9.86506 50.1349C12.4804 52.7502 15.5258 54.8035 18.9164 56.2376C22.4265 57.7222 26.1556 58.475 29.9999 58.475C33.8444 58.475 37.5735 57.7222 41.0834 56.2376C44.4742 54.8035 47.5195 52.7502 50.1349 50.1349C52.7502 47.5195 54.8035 44.4742 56.2376 41.0835C57.7222 37.5734 58.475 33.8443 58.475 30C58.475 26.1556 57.7222 22.4265 56.2376 18.9165C54.8035 15.5258 52.7502 12.4804 50.1349 9.86514C47.5195 7.24977 44.4742 5.19649 41.0834 3.76241C37.5735 2.27773 33.8444 1.52495 29.9999 1.52495Z" fill="#1982FF"/>
</svg>
