<svg width="12" height="20" viewBox="0 0 12 20" fill="none" xmlns="http://www.w3.org/2000/svg">
<path d="M5.99952 0.330841C5.99952 0.330841 0.000947743 7.99131 2.50494e-07 13.6687C-0.000947242 17.3469 2.68614 19.6682 5.99952 19.6682C9.3129 19.6682 12 17.3469 11.999 13.6687C11.9981 7.99037 5.99952 0.330841 5.99952 0.330841Z" fill="#1982FF"/>
<g opacity="0.05">
<path d="M6.45718 0.942917C8.06792 4.03364 9.82081 8.19978 9.82175 11.7074C9.8227 15.9095 7.13561 18.5625 3.82223 18.5625C3.19499 18.5625 2.59047 18.4668 2.02197 18.2839C3.08127 19.1746 4.47314 19.6692 6.0005 19.6692C9.31388 19.6692 12.001 17.3478 12 13.6696C11.9981 8.94829 7.85568 2.86348 6.45718 0.942917Z" fill="black"/>
</g>
<path d="M3.19598 13.8354C3.19598 14.9866 2.67013 15.9199 2.0211 15.9199C1.37207 15.9199 0.846191 14.9866 0.846191 13.8354C0.846191 12.6842 1.37207 11.751 2.0211 11.751C2.67013 11.751 3.19598 12.6842 3.19598 13.8354Z" fill="white"/>
</svg>
